<?xml version="1.0" encoding="iso-8859-1"?>
<!-- Generator: Adobe Illustrator 19.0.0, SVG Export Plug-In . SVG Version: 6.00 Build 0)  -->
<svg version="1.1" id="Layer_1" xmlns="http://www.w3.org/2000/svg" xmlns:xlink="http://www.w3.org/1999/xlink" x="0px" y="0px"
	 viewBox="0 0 295.41 295.41" style="enable-background:new 0 0 295.41 295.41;" xml:space="preserve">
<g>
	<path style="fill:#28D2E4;" d="M243.065,7.5H52.345c-5.523,0-10,4.477-10,10v260.41c0,5.523,4.477,10,10,10h190.72
		c5.523,0,10-4.477,10-10V17.5C253.065,11.977,248.588,7.5,243.065,7.5z M228.065,262.91H67.345V32.5h160.721L228.065,262.91
		L228.065,262.91z"/>
	<g>
		<g>
			<rect x="92.705" y="68.035" style="fill:#FFDB77;" width="24.87" height="35.34"/>
			<rect x="117.575" y="68.035" style="fill:#FFDB77;" width="24.86" height="35.34"/>
		</g>
		<g>
			<rect x="177.835" y="130.035" style="fill:#FFDB77;" width="24.87" height="35.34"/>
			<rect x="152.975" y="130.035" style="fill:#FFDB77;" width="24.86" height="35.34"/>
		</g>
		<g>
			<rect x="92.705" y="192.035" style="fill:#FFDB77;" width="24.87" height="35.34"/>
			<g>
				<rect x="117.575" y="192.035" style="fill:#FFDB77;" width="24.86" height="35.34"/>
				<g>
					<path style="fill:#22313F;" d="M243.065,0H52.345c-9.649,0-17.5,7.851-17.5,17.5v260.41c0,9.649,7.851,17.5,17.5,17.5h190.721
						c9.649,0,17.5-7.851,17.5-17.5V17.5C260.565,7.851,252.715,0,243.065,0z M245.565,277.91c0,1.378-1.121,2.5-2.5,2.5H52.345
						c-1.379,0-2.5-1.122-2.5-2.5V17.5c0-1.378,1.121-2.5,2.5-2.5h190.721c1.379,0,2.5,1.122,2.5,2.5L245.565,277.91L245.565,277.91
						z"/>
					<path style="fill:#22313F;" d="M228.065,25H67.345c-4.142,0-7.5,3.358-7.5,7.5v230.41c0,4.142,3.358,7.5,7.5,7.5h160.721
						c4.143,0,7.5-3.358,7.5-7.5V32.5C235.565,28.358,232.208,25,228.065,25z M125.075,199.535h9.86v20.34h-9.86V199.535z
						 M142.436,184.535c-15.446,0-34.283,0-49.73,0c-4.143,0-7.5,3.358-7.5,7.5v10.17h-10.36v-47h70.63v10.17
						c0,4.142,3.357,7.5,7.5,7.5c15.446,0,34.283,0,49.73,0c4.143,0,7.5-3.358,7.5-7.5v-10.17h10.36v47h-70.63v-10.17
						C149.936,187.893,146.578,184.535,142.436,184.535z M100.205,199.535h9.87v20.34h-9.87V199.535z M110.075,95.875h-9.87v-20.34
						h9.87V95.875z M92.705,110.875c15.435,0,34.28,0,49.73,0c4.143,0,7.5-3.358,7.5-7.5v-10.17h70.63v47h-10.36v-10.17
						c0-4.142-3.357-7.5-7.5-7.5c-15.435,0-34.28,0-49.73,0c-4.143,0-7.5,3.358-7.5,7.5v10.17h-70.63v-47h10.36v10.17
						C85.205,107.517,88.563,110.875,92.705,110.875z M134.936,95.875h-9.86v-20.34h9.86V95.875z M185.335,137.535h9.87v20.34h-9.87
						V137.535z M160.475,137.535h9.86v20.34h-9.86V137.535z M220.565,40v38.205h-70.63v-10.17c0-4.142-3.357-7.5-7.5-7.5
						c-15.446,0-34.283,0-49.73,0c-4.143,0-7.5,3.358-7.5,7.5v10.17h-10.36V40H220.565z M74.845,255.41v-38.205h10.36v10.17
						c0,4.142,3.357,7.5,7.5,7.5c15.435,0,34.28,0,49.73,0c4.143,0,7.5-3.358,7.5-7.5v-10.17h70.63v38.205H74.845z"/>
				</g>
			</g>
		</g>
	</g>
</g>
<g>
</g>
<g>
</g>
<g>
</g>
<g>
</g>
<g>
</g>
<g>
</g>
<g>
</g>
<g>
</g>
<g>
</g>
<g>
</g>
<g>
</g>
<g>
</g>
<g>
</g>
<g>
</g>
<g>
</g>
</svg>
