<?xml version="1.0" encoding="UTF-8"?>
<svg width="338px" height="449px" viewBox="0 0 338 449" version="1.1" xmlns="http://www.w3.org/2000/svg" xmlns:xlink="http://www.w3.org/1999/xlink">
    <!-- Generator: Sketch 50.2 (55047) - http://www.bohemiancoding.com/sketch -->
    <title>announcementboard</title>
    <desc>Created with Sketch.</desc>
    <defs>
        <radialGradient cx="50%" cy="50%" fx="50%" fy="50%" r="73.2884754%" id="radialGradient-1">
            <stop stop-color="#FFFFFF" stop-opacity="0.153702446" offset="0%"></stop>
            <stop stop-color="#000000" stop-opacity="0.153702446" offset="100%"></stop>
        </radialGradient>
        <rect id="path-2" x="32" y="32" width="276" height="43"></rect>
        <filter x="-0.7%" y="-2.3%" width="101.4%" height="109.3%" filterUnits="objectBoundingBox" id="filter-3">
            <feOffset dx="0" dy="1" in="SourceAlpha" result="shadowOffsetOuter1"></feOffset>
            <feGaussianBlur stdDeviation="0.5" in="shadowOffsetOuter1" result="shadowBlurOuter1"></feGaussianBlur>
            <feColorMatrix values="0 0 0 0 0   0 0 0 0 0   0 0 0 0 0  0 0 0 0.5 0" type="matrix" in="shadowBlurOuter1"></feColorMatrix>
        </filter>
        <circle id="path-4" cx="36" cy="36" r="2"></circle>
        <filter x="-12.5%" y="-12.5%" width="125.0%" height="150.0%" filterUnits="objectBoundingBox" id="filter-5">
            <feOffset dx="0" dy="1" in="SourceAlpha" result="shadowOffsetOuter1"></feOffset>
            <feComposite in="shadowOffsetOuter1" in2="SourceAlpha" operator="out" result="shadowOffsetOuter1"></feComposite>
            <feColorMatrix values="0 0 0 0 0   0 0 0 0 0   0 0 0 0 0  0 0 0 0.5 0" type="matrix" in="shadowOffsetOuter1"></feColorMatrix>
        </filter>
        <circle id="path-6" cx="33" cy="291" r="2"></circle>
        <filter x="-12.5%" y="-12.5%" width="125.0%" height="150.0%" filterUnits="objectBoundingBox" id="filter-7">
            <feOffset dx="0" dy="1" in="SourceAlpha" result="shadowOffsetOuter1"></feOffset>
            <feColorMatrix values="0 0 0 0 0   0 0 0 0 0   0 0 0 0 0  0 0 0 0.5 0" type="matrix" in="shadowOffsetOuter1"></feColorMatrix>
        </filter>
        <circle id="path-8" cx="38" cy="302" r="2"></circle>
        <filter x="-12.5%" y="-12.5%" width="125.0%" height="150.0%" filterUnits="objectBoundingBox" id="filter-9">
            <feOffset dx="0" dy="1" in="SourceAlpha" result="shadowOffsetOuter1"></feOffset>
            <feColorMatrix values="0 0 0 0 0   0 0 0 0 0   0 0 0 0 0  0 0 0 0.5 0" type="matrix" in="shadowOffsetOuter1"></feColorMatrix>
        </filter>
        <circle id="path-10" cx="44" cy="291" r="2"></circle>
        <filter x="-12.5%" y="-12.5%" width="125.0%" height="150.0%" filterUnits="objectBoundingBox" id="filter-11">
            <feOffset dx="0" dy="1" in="SourceAlpha" result="shadowOffsetOuter1"></feOffset>
            <feColorMatrix values="0 0 0 0 0   0 0 0 0 0   0 0 0 0 0  0 0 0 0.5 0" type="matrix" in="shadowOffsetOuter1"></feColorMatrix>
        </filter>
        <circle id="path-12" cx="53" cy="287" r="2"></circle>
        <filter x="-12.5%" y="-12.5%" width="125.0%" height="150.0%" filterUnits="objectBoundingBox" id="filter-13">
            <feOffset dx="0" dy="1" in="SourceAlpha" result="shadowOffsetOuter1"></feOffset>
            <feColorMatrix values="0 0 0 0 0   0 0 0 0 0   0 0 0 0 0  0 0 0 0.5 0" type="matrix" in="shadowOffsetOuter1"></feColorMatrix>
        </filter>
        <circle id="path-14" cx="56" cy="301" r="2"></circle>
        <filter x="-12.5%" y="-12.5%" width="125.0%" height="150.0%" filterUnits="objectBoundingBox" id="filter-15">
            <feOffset dx="0" dy="1" in="SourceAlpha" result="shadowOffsetOuter1"></feOffset>
            <feColorMatrix values="0 0 0 0 0   0 0 0 0 0   0 0 0 0 0  0 0 0 0.5 0" type="matrix" in="shadowOffsetOuter1"></feColorMatrix>
        </filter>
        <circle id="path-16" cx="304" cy="36" r="2"></circle>
        <filter x="-12.5%" y="-12.5%" width="125.0%" height="150.0%" filterUnits="objectBoundingBox" id="filter-17">
            <feOffset dx="0" dy="1" in="SourceAlpha" result="shadowOffsetOuter1"></feOffset>
            <feColorMatrix values="0 0 0 0 0   0 0 0 0 0   0 0 0 0 0  0 0 0 0.5 0" type="matrix" in="shadowOffsetOuter1"></feColorMatrix>
        </filter>
    </defs>
    <g id="Page-1" stroke="none" stroke-width="1" fill="none" fill-rule="evenodd">
        <g id="chalkboard" transform="translate(-900.000000, -122.000000)">
            <g id="announcementboard" transform="translate(900.000000, 122.000000)">
                <g id="Outlet-Copy-2" transform="translate(36.000000, 406.000000)">
                    <path d="M0.5,0.5 L0.5,42.5 L53.5,42.5 L53.5,0.5 L0.5,0.5 Z" id="Rectangle-11" stroke="#CFCFCF" fill="#FFFFFF"></path>
                    <g id="Outlet" transform="translate(4.000000, 5.000000)">
                        <path d="M2.8585672,0 L17.1414328,0 C18.9096817,1.80375068 20,4.2745466 20,7 C20,9.7254534 18.9096817,12.1962493 17.1414328,14 L2.8585672,14 C1.09031832,12.1962493 0,9.7254534 0,7 C0,4.2745466 1.09031832,1.80375068 2.8585672,0 Z" id="Combined-Shape" stroke="#CDCDCD"></path>
                        <rect id="Rectangle-12" stroke="#000000" x="6.5" y="2.5" width="1" height="4"></rect>
                        <rect id="Rectangle-12-Copy" stroke="#000000" x="13.5" y="2.5" width="1" height="4"></rect>
                        <path d="M8,10 C8,8.8954305 8.8954305,8 10,8 C11.1045695,8 12,8.8954305 12,10 L12,12 L8,12 L8,10 Z" id="Combined-Shape" stroke="#000000" fill="#000000"></path>
                    </g>
                    <g id="Outlet-Copy-4" transform="translate(30.000000, 5.000000)">
                        <path d="M2.8585672,0 L17.1414328,0 C18.9096817,1.80375068 20,4.2745466 20,7 C20,9.7254534 18.9096817,12.1962493 17.1414328,14 L2.8585672,14 C1.09031832,12.1962493 0,9.7254534 0,7 C0,4.2745466 1.09031832,1.80375068 2.8585672,0 Z" id="Combined-Shape" stroke="#CDCDCD"></path>
                        <rect id="Rectangle-12" stroke="#000000" x="6.5" y="2.5" width="1" height="4"></rect>
                        <rect id="Rectangle-12-Copy" stroke="#000000" x="13.5" y="2.5" width="1" height="4"></rect>
                        <path d="M8,10 C8,8.8954305 8.8954305,8 10,8 C11.1045695,8 12,8.8954305 12,10 L12,12 L8,12 L8,10 Z" id="Combined-Shape" stroke="#000000" fill="#000000"></path>
                    </g>
                    <g id="Outlet-Copy" transform="translate(4.000000, 25.000000)">
                        <path d="M2.8585672,0 L17.1414328,0 C18.9096817,1.80375068 20,4.2745466 20,7 C20,9.7254534 18.9096817,12.1962493 17.1414328,14 L2.8585672,14 C1.09031832,12.1962493 0,9.7254534 0,7 C0,4.2745466 1.09031832,1.80375068 2.8585672,0 Z" id="Combined-Shape" stroke="#CACACA"></path>
                        <rect id="Rectangle-12" stroke="#000000" x="6.5" y="2.5" width="1" height="4"></rect>
                        <rect id="Rectangle-12-Copy" stroke="#000000" x="13.5" y="2.5" width="1" height="4"></rect>
                        <path d="M8,10 C8,8.8954305 8.8954305,8 10,8 C11.1045695,8 12,8.8954305 12,10 L12,12 L8,12 L8,10 Z" id="Combined-Shape" stroke="#000000" fill="#000000"></path>
                    </g>
                    <g id="Outlet-Copy-5" transform="translate(30.000000, 25.000000)">
                        <path d="M2.8585672,0 L17.1414328,0 C18.9096817,1.80375068 20,4.2745466 20,7 C20,9.7254534 18.9096817,12.1962493 17.1414328,14 L2.8585672,14 C1.09031832,12.1962493 0,9.7254534 0,7 C0,4.2745466 1.09031832,1.80375068 2.8585672,0 Z" id="Combined-Shape" stroke="#CACACA"></path>
                        <rect id="Rectangle-12" stroke="#000000" x="6.5" y="2.5" width="1" height="4"></rect>
                        <rect id="Rectangle-12-Copy" stroke="#000000" x="13.5" y="2.5" width="1" height="4"></rect>
                        <path d="M8,10 C8,8.8954305 8.8954305,8 10,8 C11.1045695,8 12,8.8954305 12,10 L12,12 L8,12 L8,10 Z" id="Combined-Shape" stroke="#000000" fill="#000000"></path>
                    </g>
                </g>
                <g id="Group">
                    <rect id="Rectangle-16" stroke-opacity="0.645040761" stroke="#A0A0A0" fill="#D9A665" x="0.5" y="0.5" width="337" height="337"></rect>
                    <rect id="Rectangle-16-Copy-2" stroke="url(#radialGradient-1)" stroke-width="4" fill="#9D7A46" x="25" y="25" width="288" height="288"></rect>
                </g>
                <circle id="Oval" stroke="#979797" fill="#D8D8D8" cx="36" cy="36" r="1"></circle>
                <g id="Rectangle-17">
                    <use fill="black" fill-opacity="1" filter="url(#filter-3)" xlink:href="#path-2"></use>
                    <use fill="#FFFFFF" fill-rule="evenodd" xlink:href="#path-2"></use>
                </g>
                <path d="M63.276,61.986 C63.276,62.48 62.86,62.818 62.418,62.818 C62.106,62.818 61.768,62.636 61.612,62.22 C61.3,61.466 60.312,58.788 59.506,56.396 C59.428,56.188 59.35,56.084 59.09,56.084 C58.674,56.058 57.426,56.058 56.1,56.058 C54.254,56.058 52.2,56.058 51.654,56.084 C51.42,56.084 51.316,56.24 51.264,56.396 C50.588,58.476 49.782,60.92 49.392,62.194 C49.262,62.636 48.898,62.818 48.56,62.818 C48.17,62.818 47.754,62.558 47.754,62.116 C47.754,62.038 47.78,61.934 47.806,61.856 C49.262,57.15 52.304,48.804 53.552,45.216 C53.89,44.28 54.618,43.838 55.32,43.838 C56.074,43.838 56.828,44.306 57.166,45.242 C58.882,50.026 62.314,59.516 63.198,61.596 C63.25,61.726 63.276,61.856 63.276,61.986 Z M58.83,54.498 C58.83,54.42 58.804,54.342 58.778,54.264 C57.972,51.82 56.308,47.348 55.892,46.048 C55.762,45.658 55.58,45.476 55.372,45.476 C55.164,45.476 54.956,45.684 54.8,46.1 C54.254,47.582 51.94,54.264 51.94,54.472 C51.94,54.576 52.018,54.628 52.226,54.628 C52.746,54.628 54.15,54.654 55.502,54.654 C56.88,54.654 58.206,54.628 58.596,54.628 C58.778,54.628 58.83,54.576 58.83,54.498 Z M81.554,61.024 L81.554,61.05 C81.554,62.22 80.644,62.922 79.682,62.922 C79.058,62.922 78.382,62.61 77.94,61.908 C76.094,58.944 70.478,48.7 69.074,46.282 C68.892,45.97 68.658,45.762 68.476,45.762 C68.112,45.762 68.112,46.126 68.112,47.946 C68.112,51.274 68.164,59.36 68.242,62.064 L68.242,62.09 C68.242,62.61 67.8,62.87 67.358,62.87 C66.916,62.87 66.474,62.61 66.474,62.09 L66.474,62.064 C66.526,59.672 66.552,56.942 66.552,54.29 C66.552,51.222 66.526,48.258 66.474,45.944 L66.474,45.866 C66.474,44.462 67.28,43.812 68.164,43.812 C68.892,43.812 69.646,44.228 70.14,45.034 C71.752,47.738 77.108,57.436 79.032,60.452 C79.188,60.712 79.396,60.868 79.552,60.868 C79.89,60.868 79.89,60.374 79.89,59.594 C79.89,56.812 79.812,47.166 79.734,44.696 L79.734,44.67 C79.734,44.072 80.176,43.786 80.592,43.786 C81.06,43.786 81.502,44.098 81.502,44.67 L81.502,44.696 C81.45,46.178 81.45,48.076 81.45,50.104 C81.45,53.978 81.502,58.32 81.554,61.024 Z M101.522,61.024 L101.522,61.05 C101.522,62.22 100.612,62.922 99.65,62.922 C99.026,62.922 98.35,62.61 97.908,61.908 C96.062,58.944 90.446,48.7 89.042,46.282 C88.86,45.97 88.626,45.762 88.444,45.762 C88.08,45.762 88.08,46.126 88.08,47.946 C88.08,51.274 88.132,59.36 88.21,62.064 L88.21,62.09 C88.21,62.61 87.768,62.87 87.326,62.87 C86.884,62.87 86.442,62.61 86.442,62.09 L86.442,62.064 C86.494,59.672 86.52,56.942 86.52,54.29 C86.52,51.222 86.494,48.258 86.442,45.944 L86.442,45.866 C86.442,44.462 87.248,43.812 88.132,43.812 C88.86,43.812 89.614,44.228 90.108,45.034 C91.72,47.738 97.076,57.436 99,60.452 C99.156,60.712 99.364,60.868 99.52,60.868 C99.858,60.868 99.858,60.374 99.858,59.594 C99.858,56.812 99.78,47.166 99.702,44.696 L99.702,44.67 C99.702,44.072 100.144,43.786 100.56,43.786 C101.028,43.786 101.47,44.098 101.47,44.67 L101.47,44.696 C101.418,46.178 101.418,48.076 101.418,50.104 C101.418,53.978 101.47,58.32 101.522,61.024 Z M115.12,63.026 C109.712,63.026 105.682,59.204 105.682,53.354 C105.682,47.712 109.712,43.63 115.12,43.63 C120.528,43.63 124.558,47.712 124.558,53.354 C124.558,59.204 120.528,63.026 115.12,63.026 Z M115.12,61.544 C119.41,61.544 122.868,58.294 122.868,53.354 C122.868,48.388 119.41,45.086 115.12,45.086 C110.83,45.086 107.372,48.388 107.372,53.354 C107.372,58.294 110.83,61.544 115.12,61.544 Z M143.694,44.644 L143.694,44.67 C143.642,46.958 143.642,48.804 143.642,50.624 C143.642,52.106 143.642,53.562 143.668,55.2 C143.746,60.27 140.262,63.052 136.362,63.052 C132.748,63.052 129.16,60.53 129.16,55.408 L129.16,55.304 C129.186,53.588 129.186,51.794 129.186,49.974 C129.186,48.18 129.186,46.386 129.134,44.67 L129.134,44.644 C129.134,44.124 129.55,43.864 129.992,43.864 C130.408,43.864 130.824,44.124 130.824,44.644 L130.824,44.67 C130.798,45.658 130.798,46.672 130.798,47.686 C130.798,49.818 130.824,51.95 130.824,54.082 L130.824,55.408 C130.824,59.464 133.554,61.466 136.336,61.466 C139.144,61.466 142.004,59.386 142.004,55.304 C142.004,52.964 142.03,50.572 142.03,48.206 C142.03,47.01 142.03,45.84 142.004,44.67 L142.004,44.644 C142.004,44.098 142.42,43.838 142.836,43.838 C143.252,43.838 143.694,44.124 143.694,44.644 Z M164.078,61.024 L164.078,61.05 C164.078,62.22 163.168,62.922 162.206,62.922 C161.582,62.922 160.906,62.61 160.464,61.908 C158.618,58.944 153.002,48.7 151.598,46.282 C151.416,45.97 151.182,45.762 151,45.762 C150.636,45.762 150.636,46.126 150.636,47.946 C150.636,51.274 150.688,59.36 150.766,62.064 L150.766,62.09 C150.766,62.61 150.324,62.87 149.882,62.87 C149.44,62.87 148.998,62.61 148.998,62.09 L148.998,62.064 C149.05,59.672 149.076,56.942 149.076,54.29 C149.076,51.222 149.05,48.258 148.998,45.944 L148.998,45.866 C148.998,44.462 149.804,43.812 150.688,43.812 C151.416,43.812 152.17,44.228 152.664,45.034 C154.276,47.738 159.632,57.436 161.556,60.452 C161.712,60.712 161.92,60.868 162.076,60.868 C162.414,60.868 162.414,60.374 162.414,59.594 C162.414,56.812 162.336,47.166 162.258,44.696 L162.258,44.67 C162.258,44.072 162.7,43.786 163.116,43.786 C163.584,43.786 164.026,44.098 164.026,44.67 L164.026,44.696 C163.974,46.178 163.974,48.076 163.974,50.104 C163.974,53.978 164.026,58.32 164.078,61.024 Z M185.164,59.204 C185.164,60.166 182.148,63 177.572,63 C171.54,63 168.264,58.346 168.264,53.484 C168.264,48.648 171.488,43.682 177.728,43.682 C181.706,43.682 184.28,46.022 184.28,46.958 C184.28,47.452 183.89,47.816 183.422,47.816 C183.188,47.816 182.902,47.712 182.694,47.426 C181.472,45.892 179.548,45.164 177.598,45.164 C172.476,45.164 169.954,49.688 169.954,53.38 C169.954,57.228 172.45,61.336 177.52,61.336 C179.86,61.336 182.174,60.4 183.448,58.684 C183.656,58.372 183.942,58.268 184.202,58.268 C184.696,58.268 185.164,58.684 185.164,59.204 Z M199.932,62.012 C199.932,62.376 199.646,62.766 199.022,62.792 C198.684,62.818 197.15,62.818 195.616,62.818 C194.108,62.818 192.574,62.818 192.236,62.792 C189.948,62.61 188.83,61.57 188.752,59.88 C188.7,58.788 188.7,56.916 188.7,54.862 C188.7,51.768 188.726,48.336 188.778,46.698 C188.83,45.008 189.87,43.994 191.794,43.89 C192.288,43.864 193.744,43.838 195.174,43.838 C196.63,43.838 198.034,43.864 198.424,43.89 C198.97,43.916 199.256,44.28 199.256,44.644 C199.256,45.008 198.944,45.372 198.372,45.372 C198.242,45.372 195.772,45.346 193.926,45.346 C191.3,45.346 190.468,45.346 190.338,46.932 C190.286,47.556 190.312,49.74 190.286,51.274 C190.286,51.768 190.546,51.768 190.806,51.768 C191.326,51.794 192.652,51.794 193.978,51.794 C195.304,51.794 196.656,51.794 197.176,51.768 C197.982,51.742 198.06,52.34 198.06,52.522 C198.06,52.912 197.748,53.328 197.176,53.328 L197.124,53.328 C196.318,53.276 194.862,53.276 193.51,53.276 C190.286,53.276 190.26,53.276 190.26,53.796 C190.26,57.8 190.26,59.022 190.338,59.646 C190.442,60.634 190.988,61.206 192.366,61.31 C192.808,61.336 194.238,61.336 195.668,61.336 C197.124,61.336 198.58,61.336 199.048,61.31 L199.126,61.31 C199.646,61.31 199.932,61.648 199.932,62.012 Z M210.774,61.44 C209.968,59.23 207.082,49.428 206.042,46.282 C205.912,45.866 205.704,45.658 205.522,45.658 C205.34,45.658 205.184,45.866 205.132,46.308 C204.924,48.674 204.404,58.398 204.274,62.09 C204.274,62.61 203.832,62.844 203.416,62.844 C202.974,62.844 202.558,62.584 202.558,62.116 L202.558,62.064 C202.74,57.41 203.364,49.584 203.572,45.71 C203.65,44.514 204.508,43.864 205.418,43.864 C206.198,43.864 207.004,44.358 207.342,45.346 C208.694,49.324 210.748,56.708 211.944,60.088 C212.048,60.374 212.178,60.504 212.334,60.504 C212.75,60.504 212.854,60.14 217.456,45.476 C217.82,44.332 218.678,43.812 219.51,43.812 C220.472,43.812 221.382,44.514 221.408,45.84 C221.486,49.298 222.006,58.164 222.24,61.96 L222.24,62.038 C222.24,62.558 221.824,62.818 221.408,62.818 C220.966,62.818 220.524,62.558 220.498,62.038 C220.212,58.216 219.822,46.282 219.822,46.282 C219.796,45.866 219.614,45.632 219.38,45.632 C219.198,45.632 218.964,45.814 218.834,46.256 C217.742,49.87 215.194,57.982 213.894,61.44 C213.608,62.168 212.958,62.584 212.308,62.584 C211.684,62.584 211.086,62.22 210.774,61.44 Z M237.97,62.012 C237.97,62.376 237.684,62.766 237.06,62.792 C236.722,62.818 235.188,62.818 233.654,62.818 C232.146,62.818 230.612,62.818 230.274,62.792 C227.986,62.61 226.868,61.57 226.79,59.88 C226.738,58.788 226.738,56.916 226.738,54.862 C226.738,51.768 226.764,48.336 226.816,46.698 C226.868,45.008 227.908,43.994 229.832,43.89 C230.326,43.864 231.782,43.838 233.212,43.838 C234.668,43.838 236.072,43.864 236.462,43.89 C237.008,43.916 237.294,44.28 237.294,44.644 C237.294,45.008 236.982,45.372 236.41,45.372 C236.28,45.372 233.81,45.346 231.964,45.346 C229.338,45.346 228.506,45.346 228.376,46.932 C228.324,47.556 228.35,49.74 228.324,51.274 C228.324,51.768 228.584,51.768 228.844,51.768 C229.364,51.794 230.69,51.794 232.016,51.794 C233.342,51.794 234.694,51.794 235.214,51.768 C236.02,51.742 236.098,52.34 236.098,52.522 C236.098,52.912 235.786,53.328 235.214,53.328 L235.162,53.328 C234.356,53.276 232.9,53.276 231.548,53.276 C228.324,53.276 228.298,53.276 228.298,53.796 C228.298,57.8 228.298,59.022 228.376,59.646 C228.48,60.634 229.026,61.206 230.404,61.31 C230.846,61.336 232.276,61.336 233.706,61.336 C235.162,61.336 236.618,61.336 237.086,61.31 L237.164,61.31 C237.684,61.31 237.97,61.648 237.97,62.012 Z M256.248,61.024 L256.248,61.05 C256.248,62.22 255.338,62.922 254.376,62.922 C253.752,62.922 253.076,62.61 252.634,61.908 C250.788,58.944 245.172,48.7 243.768,46.282 C243.586,45.97 243.352,45.762 243.17,45.762 C242.806,45.762 242.806,46.126 242.806,47.946 C242.806,51.274 242.858,59.36 242.936,62.064 L242.936,62.09 C242.936,62.61 242.494,62.87 242.052,62.87 C241.61,62.87 241.168,62.61 241.168,62.09 L241.168,62.064 C241.22,59.672 241.246,56.942 241.246,54.29 C241.246,51.222 241.22,48.258 241.168,45.944 L241.168,45.866 C241.168,44.462 241.974,43.812 242.858,43.812 C243.586,43.812 244.34,44.228 244.834,45.034 C246.446,47.738 251.802,57.436 253.726,60.452 C253.882,60.712 254.09,60.868 254.246,60.868 C254.584,60.868 254.584,60.374 254.584,59.594 C254.584,56.812 254.506,47.166 254.428,44.696 L254.428,44.67 C254.428,44.072 254.87,43.786 255.286,43.786 C255.754,43.786 256.196,44.098 256.196,44.67 L256.196,44.696 C256.144,46.178 256.144,48.076 256.144,50.104 C256.144,53.978 256.196,58.32 256.248,61.024 Z M267.792,62.012 L267.792,62.038 C267.792,62.584 267.35,62.87 266.882,62.87 C266.414,62.87 265.972,62.584 265.972,62.038 L265.972,62.012 C266.024,59.724 266.076,55.044 266.076,51.066 C266.076,48.986 266.05,47.088 266.024,45.866 C266.024,45.502 265.972,45.424 264.23,45.424 C263.112,45.424 261.656,45.476 260.408,45.476 C259.836,45.476 259.55,45.086 259.55,44.722 C259.55,44.332 259.836,43.968 260.382,43.968 L260.408,43.968 C261.994,43.994 264.75,44.02 267.48,44.02 C269.716,44.02 271.926,43.994 273.434,43.968 L273.46,43.968 C273.98,43.968 274.24,44.358 274.24,44.722 C274.24,45.112 273.98,45.476 273.486,45.476 L273.46,45.476 C272.498,45.45 271.562,45.424 270.756,45.424 C269.508,45.424 268.546,45.45 268.156,45.476 C267.922,45.476 267.74,45.528 267.74,45.866 C267.714,47.114 267.688,48.804 267.688,50.65 C267.688,54.706 267.766,59.516 267.792,62.012 Z M288.046,57.93 C288.046,60.374 286.044,63.026 282.066,63.026 C277.854,63.026 276.06,60.348 276.06,59.62 C276.06,59.152 276.476,58.814 276.918,58.814 C277.178,58.814 277.438,58.918 277.62,59.23 C278.374,60.608 279.986,61.492 282.092,61.492 C284.588,61.492 286.356,59.906 286.356,57.956 C286.356,56.708 285.602,55.356 283.912,54.394 C282.586,53.64 281.156,52.938 279.752,52.236 C277.828,51.274 276.892,49.61 276.892,47.998 C276.892,45.762 278.66,43.656 281.91,43.656 C285.16,43.656 287.084,45.502 287.084,46.334 C287.084,46.776 286.72,47.166 286.304,47.166 C286.044,47.166 285.784,47.036 285.576,46.724 C284.926,45.788 283.756,45.034 281.884,45.034 C279.752,45.034 278.478,46.412 278.478,47.946 C278.478,49.012 279.128,50.156 280.532,50.91 C281.702,51.534 283.548,52.366 284.666,52.99 C287.032,54.29 288.046,56.162 288.046,57.93 Z" id="ANNOUNCEMENTS" fill="#000000"></path>
                <g id="Oval-5">
                    <use fill="black" fill-opacity="1" filter="url(#filter-5)" xlink:href="#path-4"></use>
                    <use fill="#FF4949" fill-rule="evenodd" xlink:href="#path-4"></use>
                </g>
                <g id="Oval-5-Copy-2">
                    <use fill="black" fill-opacity="1" filter="url(#filter-7)" xlink:href="#path-6"></use>
                    <use fill="#4954FF" fill-rule="evenodd" xlink:href="#path-6"></use>
                </g>
                <g id="Oval-5-Copy-4">
                    <use fill="black" fill-opacity="1" filter="url(#filter-9)" xlink:href="#path-8"></use>
                    <use fill="#FF495F" fill-rule="evenodd" xlink:href="#path-8"></use>
                </g>
                <g id="Oval-5-Copy-3">
                    <use fill="black" fill-opacity="1" filter="url(#filter-11)" xlink:href="#path-10"></use>
                    <use fill="#FFFB58" fill-rule="evenodd" xlink:href="#path-10"></use>
                </g>
                <g id="Oval-5-Copy-6">
                    <use fill="black" fill-opacity="1" filter="url(#filter-13)" xlink:href="#path-12"></use>
                    <use fill="#FFC127" fill-rule="evenodd" xlink:href="#path-12"></use>
                </g>
                <g id="Oval-5-Copy-5">
                    <use fill="black" fill-opacity="1" filter="url(#filter-15)" xlink:href="#path-14"></use>
                    <use fill="#39FF44" fill-rule="evenodd" xlink:href="#path-14"></use>
                </g>
                <g id="Oval-5-Copy">
                    <use fill="black" fill-opacity="1" filter="url(#filter-17)" xlink:href="#path-16"></use>
                    <use fill="#46A940" fill-rule="evenodd" xlink:href="#path-16"></use>
                </g>
            </g>
        </g>
    </g>
</svg>