<?xml version="1.0" encoding="UTF-8"?>
<svg width="892px" height="383px" viewBox="0 0 892 383" version="1.1" xmlns="http://www.w3.org/2000/svg" xmlns:xlink="http://www.w3.org/1999/xlink">
    <!-- Generator: Sketch 50.2 (55047) - http://www.bohemiancoding.com/sketch -->
    <title>background-red</title>
    <desc>Created with Sketch.</desc>
    <defs></defs>
    <g id="Page-1" stroke="none" stroke-width="1" fill="none" fill-rule="evenodd">
        <g id="Artboard-Copy-2" transform="translate(-73.000000, -150.000000)" fill="#FFF2F2">
            <path d="M463.057746,459.732345 C561.693309,459.732345 588.507189,519.258347 660.832061,528.156218 C733.156933,537.054088 768.971836,536.188226 822.65025,503.971726 C876.328663,471.755225 817.658281,411.51668 867.769826,403.957118 C935.600178,393.72459 803.710466,325.008215 839.727587,307.236633 C863.079003,295.714569 965.082829,282.959903 964.964869,251.560653 C964.846909,220.161403 873.836191,248.533181 883.697466,218.846134 C911.739705,134.425889 799.713757,183.360707 765.650856,190.841756 C731.587955,198.322804 746.772232,147.014076 681.764182,152.11273 C616.756133,157.211383 640.115096,207.811762 549.282546,207.811762 C501.336048,207.811762 400.94088,137.011876 311.454721,152.11273 C269.313866,159.224029 273.216389,194.397223 244.056748,190.841756 C228.945205,188.999188 145.444146,151.981726 116.476682,190.841756 C92.1250241,223.509654 64.5824099,228.230652 75.4334172,251.560653 C86.2844246,274.890655 154.615246,254.742976 162.611144,290.032275 C170.607042,325.321574 95.5938608,346.56169 102.108817,369.290547 C108.623774,392.019403 185.266633,388.17104 195.266346,403.957118 C207.807839,423.755782 158.988059,450.942824 162.611144,471.918974 C167.454413,499.95948 226.300357,520.16488 269.000876,528.156218 C319.882039,537.67855 364.422183,459.732345 463.057746,459.732345 Z" id="background-red"></path>
        </g>
    </g>
</svg>