<?xml version="1.0" encoding="UTF-8"?>
<svg width="170px" height="165px" viewBox="0 0 170 165" version="1.1" xmlns="http://www.w3.org/2000/svg" xmlns:xlink="http://www.w3.org/1999/xlink">
    <!-- Generator: Sketch 50.2 (55047) - http://www.bohemiancoding.com/sketch -->
    <title>bjbuilding1</title>
    <desc>Created with Sketch.</desc>
    <defs></defs>
    <g id="Page-1" stroke="none" stroke-width="1" fill="none" fill-rule="evenodd">
        <g id="chalkboard-copy" transform="translate(-807.000000, -44.000000)">
            <g id="bjbuilding1" transform="translate(809.000000, 46.000000)">
                <g>
                    <path d="M20.6831981,60.9526134 L28.8694102,43.7498633 L44.0259883,43.7498633 L44.0259883,27.9998496 L41.8608555,27.9998496 C28.9267969,27.9998496 18.4042773,17.7942734 18.4042773,5.24979492 L29.2302656,5.24979492 C29.2302656,11.0808529 33.4526139,15.973415 39.0876827,17.2024808 L47.2740117,0 L83,0 L118.725988,0 L126.912317,17.2024808 C132.547386,15.973415 136.769734,11.0808529 136.769734,5.24979492 L147.595723,5.24979492 C147.595723,17.7942734 137.073203,27.9998496 124.139145,27.9998496 L121.974012,27.9998496 L121.974012,43.7498633 L137.13059,43.7498633 L145.316802,60.9526134 C150.951767,59.7234728 155.174012,54.8309591 155.174012,48.9999727 L166,48.9999727 C166,61.5444512 155.47748,71.7500273 142.543422,71.7500273 L142.543422,101.500123 L166,101.500123 L166,161 L137.13059,161 L115.478289,161 L93.8259883,161 L93.8259883,129.499973 L83,129.499973 L72.1740117,129.499973 L72.1740117,161 L50.5217109,161 L28.8694102,161 L0,161 L0,101.500123 L23.4565781,101.500123 L23.4565781,71.7500273 C10.5225195,71.7500273 0,61.5444512 0,48.9999727 L10.8259883,48.9999727 C10.8259883,54.8309591 15.0482331,59.7234728 20.6831981,60.9526134 Z" id="Combined-Shape" stroke="#FF4730" stroke-width="3" fill-rule="nonzero"></path>
                    <g id="Group" transform="translate(75.372973, 0.000000)"></g>
                    <g id="Group"></g>
                    <g id="Group" transform="translate(0.000000, 6.000000)"></g>
                    <g id="Group" transform="translate(0.000000, 6.000000)"></g>
                    <g id="Group" transform="translate(0.000000, 6.000000)"></g>
                </g>
                <path d="M45,28 L122,28" id="Path-3" stroke="#FF4730" stroke-width="3"></path>
                <path d="M23,72 L142,72" id="Path-3-Copy" stroke="#FF4730" stroke-width="3"></path>
                <path d="M23,101 L142,101" id="Path-3-Copy-2" stroke="#FF4730" stroke-width="3"></path>
                <path d="M24,116 L143,116" id="Path-3-Copy-5" stroke="#FF4730" stroke-width="3"></path>
                <path d="M23,162 L23,102.5" id="Path-3-Copy-3" stroke="#FF4730" stroke-width="3"></path>
                <path d="M143,162 L143,102.5" id="Path-3-Copy-4" stroke="#FF4730" stroke-width="3"></path>
            </g>
        </g>
    </g>
</svg>