<?xml version="1.0" encoding="UTF-8"?>
<svg width="168px" height="160px" viewBox="0 0 168 160" version="1.1" xmlns="http://www.w3.org/2000/svg" xmlns:xlink="http://www.w3.org/1999/xlink">
    <!-- Generator: Sketch 50.2 (55047) - http://www.bohemiancoding.com/sketch -->
    <title>bjbuilding1</title>
    <desc>Created with Sketch.</desc>
    <defs></defs>
    <g id="Page-1" stroke="none" stroke-width="1" fill="none" fill-rule="evenodd">
        <g id="chalkboard-copy" transform="translate(-818.000000, -59.000000)">
            <g id="bjbuilding1" transform="translate(820.000000, 61.000000)">
                <g id="Group" stroke-width="3">
                    <g>
                        <rect id="Rectangle-5" stroke="#00CCC2" x="47.5" y="28.5" width="74" height="12.5"></rect>
                        <path d="M43.2201154,18.3849134 L50.1551724,0 L118.844828,0 L125.585241,17.8689104 C130.659137,16.3925555 134.357651,11.9166703 134.357651,6.63895464 L145,6.63895464 C145,18.6671276 134.655972,28.4526627 121.941311,28.4526627 L41.0586895,28.4526627 C28.3440284,28.4526627 18,18.6671276 18,6.63895464 L28.6423495,6.63895464 C28.6423495,13.1157095 34.2122845,18.3849134 41.0586895,18.3849134 L43.2201154,18.3849134 Z" id="Combined-Shape" stroke="#FF832F" fill-rule="nonzero"></path>
                        <path d="M26.2447928,63.0434085 L36,41.0111571 L132,41.0111571 L141.702466,62.9242916 C147.722723,62.0908112 152.369662,56.9851214 152.369662,50.830774 L163,50.830774 C163,63.3368353 152.667646,73.5111571 139.967336,73.5111571 L23.0326641,73.5111571 C10.3323535,73.5111571 0,63.3368353 0,50.830774 L10.6303379,50.830774 C10.6303379,57.5648552 16.1939863,63.0434085 23.0326641,63.0434085 L26.2447928,63.0434085 Z" id="Combined-Shape" stroke="#FF832F" fill-rule="nonzero"></path>
                    </g>
                </g>
                <path d="M73.5,156.5 L73.5,126.600592 L96.5,126.600592 L96.5,156.5 L164.5,156.5 L164.5,102.594675 L139.5,102.594675 L139.5,73.6597633 L28.5,73.6597633 L28.5,102.594675 L3.5,102.594675 L3.5,156.5 L73.5,156.5 Z" id="Combined-Shape" stroke="#FF1926" stroke-width="3"></path>
                <rect id="Rectangle-6" stroke="#7F0D14" stroke-width="3" x="28.5" y="130.671598" width="19" height="25.7999992"></rect>
                <rect id="Rectangle-6-Copy" stroke="#7F0D14" stroke-width="3" x="120.5" y="130.671598" width="19" height="25.7999992"></rect>
                <rect id="Rectangle-8" stroke="#7F0D14" stroke-width="3" x="40.5" y="76.5532544" width="18" height="24.0059172"></rect>
                <rect id="Rectangle-8-Copy" stroke="#7F0D14" stroke-width="3" x="110.5" y="76.5532544" width="18" height="24.0059172"></rect>
                <rect id="Rectangle-8-Copy-2" stroke="#7F0D14" stroke-width="3" x="75.5" y="76.5532544" width="18" height="24.0059172"></rect>
                <path d="M29,103.023669 L138.115933,103.023669" id="Path-3" stroke="#FF1926" stroke-width="2.2"></path>
                <rect id="Rectangle-23" stroke="#FFCE82" stroke-width="3" x="63.5" y="110.310651" width="42" height="9.53846154"></rect>
            </g>
        </g>
    </g>
</svg>