<?xml version="1.0" encoding="UTF-8"?>
<svg width="168px" height="171px" viewBox="0 0 168 171" version="1.1" xmlns="http://www.w3.org/2000/svg" xmlns:xlink="http://www.w3.org/1999/xlink">
    <!-- Generator: Sketch 50.2 (55047) - http://www.bohemiancoding.com/sketch -->
    <title>bjbuilding1</title>
    <desc>Created with Sketch.</desc>
    <defs></defs>
    <g id="Page-1" stroke="none" stroke-width="1" fill="none" fill-rule="evenodd">
        <g id="chalkboard-copy" transform="translate(-818.000000, -54.000000)" stroke-width="3">
            <g id="bjbuilding1" transform="translate(820.000000, 56.000000)">
                <g fill-rule="nonzero" id="Group" stroke="#FF832F">
                    <g>
                        <path d="M43.2201154,19.0616587 L50.1551724,0 L118.844828,0 L125.585241,18.5266617 C130.659137,16.9959624 134.357651,12.3553207 134.357651,6.88333333 L145,6.88333333 C145,19.3542611 134.655972,29.5 121.941311,29.5 L41.0586895,29.5 C28.3440284,29.5 18,19.3542611 18,6.88333333 L28.6423495,6.88333333 C28.6423495,13.5984964 34.2122845,19.0616587 41.0586895,19.0616587 L43.2201154,19.0616587 Z" id="Combined-Shape"></path>
                        <path d="M26.2447928,70.0066333 L36,47.7048193 L132,47.7048193 L141.702466,69.886059 C147.722723,69.042381 152.369662,63.8742236 152.369662,57.6445783 L163,57.6445783 C163,70.3036501 152.667646,80.6024538 139.967336,80.6024538 L23.0326641,80.6024538 C10.3323535,80.6024538 0,70.3036501 0,57.6445783 L10.6303379,57.6445783 C10.6303379,64.4610504 16.1939863,70.0066333 23.0326641,70.0066333 L26.2447928,70.0066333 Z" id="Combined-Shape"></path>
                    </g>
                </g>
                <rect id="Rectangle-5" stroke="#00CCC2" x="47.5" y="32.5" width="74" height="12.5"></rect>
                <path d="M73.5,167.5 L73.5,136.5 L96.5,136.5 L96.5,167.5 L164.5,167.5 L164.5,111.5 L139.5,111.5 L139.5,81.5 L28.5,81.5 L28.5,111.5 L3.5,111.5 L3.5,167.5 L73.5,167.5 Z" id="Combined-Shape" stroke="#FF1926"></path>
                <rect id="Rectangle-6" stroke="#7F0D14" x="28.5" y="137.5" width="19" height="27"></rect>
                <rect id="Rectangle-6-Copy" stroke="#7F0D14" x="120.5" y="137.5" width="19" height="27"></rect>
                <rect id="Rectangle-8" stroke="#7F0D14" x="40.5" y="84.5" width="18" height="25"></rect>
                <rect id="Rectangle-8-Copy" stroke="#7F0D14" x="110.5" y="84.5" width="18" height="25"></rect>
                <rect id="Rectangle-8-Copy-2" stroke="#7F0D14" x="75.5" y="84.5" width="18" height="25"></rect>
                <path d="M29,112 L138.115933,112" id="Path-3" stroke="#FF1926"></path>
                <rect id="Rectangle-23" stroke="#FFCE82" x="63.5" y="119.5" width="42" height="10"></rect>
            </g>
        </g>
    </g>
</svg>