<?xml version="1.0" encoding="UTF-8" standalone="no"?>
<!-- Generator: Adobe Illustrator 19.0.0, SVG Export Plug-In . SVG Version: 6.00 Build 0)  -->

<svg
   xmlns:dc="http://purl.org/dc/elements/1.1/"
   xmlns:cc="http://creativecommons.org/ns#"
   xmlns:rdf="http://www.w3.org/1999/02/22-rdf-syntax-ns#"
   xmlns:svg="http://www.w3.org/2000/svg"
   xmlns="http://www.w3.org/2000/svg"
   xmlns:sodipodi="http://sodipodi.sourceforge.net/DTD/sodipodi-0.dtd"
   xmlns:inkscape="http://www.inkscape.org/namespaces/inkscape"
   version="1.1"
   id="Layer_1"
   x="0px"
   y="0px"
   viewBox="0 0 473.931 473.931"
   style="enable-background:new 0 0 473.931 473.931;"
   xml:space="preserve"
   inkscape:version="0.91 r13725"
   sodipodi:docname="graduate.svg"><metadata
     id="metadata91"><rdf:RDF><cc:Work
         rdf:about=""><dc:format>image/svg+xml</dc:format><dc:type
           rdf:resource="http://purl.org/dc/dcmitype/StillImage" /></cc:Work></rdf:RDF></metadata><defs
     id="defs89" /><sodipodi:namedview
     pagecolor="#ffffff"
     bordercolor="#666666"
     borderopacity="1"
     objecttolerance="10"
     gridtolerance="10"
     guidetolerance="10"
     inkscape:pageopacity="0"
     inkscape:pageshadow="2"
     inkscape:window-width="1440"
     inkscape:window-height="810"
     id="namedview87"
     showgrid="false"
     inkscape:zoom="0.99592557"
     inkscape:cx="166.7281"
     inkscape:cy="247.83019"
     inkscape:window-x="0"
     inkscape:window-y="1"
     inkscape:window-maximized="1"
     inkscape:current-layer="Layer_1" /><circle
     style="fill:#ffffff"
     cx="236.966"
     cy="236.966"
     r="236.966"
     id="circle3" /><polygon
     style="fill:#a480b1"
     points="265.384,247.922 241.946,271.577 222.025,247.922 241.946,247.922 "
     id="polygon5"
     transform="matrix(1.4850659,0,0,1.3014001,-107.30169,-92.339389)" /><path
     style="fill:#2a3633"
     d="m 371.84147,409.5963 c 0,26.69951 -22.49876,48.35481 -50.23829,48.35481 l -137.08496,0 c -27.73954,0 -50.2383,-21.65008 -50.2383,-48.35481 0,0 11.50185,-104.74839 20.93795,-130.95078 9.40789,-26.17376 22.48835,-48.34442 50.2383,-48.34442 l 16.96539,0 29.584,26.9533 34.80697,-26.9533 18.05989,0 c 27.73954,0 42.90356,16.11265 50.2279,48.34442 7.32138,32.2461 16.74115,130.95078 16.74115,130.95078 z"
     id="path7"
     inkscape:connector-curvature="0" /><g
     id="g9"
     transform="matrix(1.4850659,0,0,1.3014001,-107.30169,-92.339389)"><path
       style="fill:#242d2b"
       d="m 283.835,385.708 4.977,37.137 c 18.679,0 33.829,-16.636 33.829,-37.156 l -38.806,0.019 z"
       id="path11"
       inkscape:connector-curvature="0" /><path
       style="fill:#242d2b"
       d="m 277.545,247.922 -12.161,0 18.488,137.775 38.768,-0.007 c 0,0 -6.342,-75.849 -11.278,-100.623 -4.931,-24.764 -15.138,-37.145 -33.817,-37.145 z"
       id="path13"
       inkscape:connector-curvature="0" /></g><path
     style="fill:#bf8a67"
     d="m 355.07247,144.96207 c 0,49.01723 -45.32123,88.73205 -101.23843,88.73205 -55.92313,0 -101.23843,-39.71091 -101.23843,-88.73205 0,-48.99251 45.30937,-88.712543 101.23843,-88.712543 55.91868,0 101.23843,39.720033 101.23843,88.712543 z"
     id="path15"
     inkscape:connector-curvature="0" /><path
     style="fill:#8c5228"
     d="M 355.07247,144.96207 286.05255,90.534911 c 0,0 -14.70364,21.337749 -53.90641,36.867369 -37.80235,14.97391 -79.54013,17.55459 -79.54013,17.55459 0,-48.992523 45.30936,-88.71255 101.23843,-88.71255 55.90828,0.0053 101.22803,39.72524 101.22803,88.71775 z"
     id="path17"
     inkscape:connector-curvature="0" /><g
     id="g19"
     transform="matrix(1.4850659,0,0,1.3014001,-105.29351,-77.278023)"><ellipse
       style="fill:#343433"
       cx="221.39999"
       cy="180.914"
       rx="9.3389997"
       ry="9.8629999"
       id="ellipse21" /><ellipse
       style="fill:#343433"
       cx="261.88599"
       cy="180.914"
       rx="9.3389997"
       ry="9.8629999"
       id="ellipse23" /></g><g
     id="g25"
     transform="matrix(1.4850659,0,0,1.3014001,-105.29351,-77.278023)"><ellipse
       style="fill:#ffffff"
       cx="264.78601"
       cy="177.172"
       rx="3.7309999"
       ry="3.948"
       id="ellipse27" /><ellipse
       style="fill:#ffffff"
       cx="224.20599"
       cy="177.172"
       rx="3.734"
       ry="3.948"
       id="ellipse29" /></g><g
     id="g31"
     transform="matrix(1.4850659,0,0,1.3014001,-107.30169,-92.339389)"><path
       style="fill:#242d2b"
       d="m 210.601,247.922 c -18.686,0 -27.494,17.036 -33.829,37.148 -6.35,20.134 -14.099,100.623 -14.099,100.623 0,20.516 15.15,37.156 33.829,37.156 l 6.986,-37.04 18.533,-137.925 -11.42,0.038 z"
       id="path33"
       inkscape:connector-curvature="0" /><rect
       x="240.071"
       y="267.76001"
       style="fill:#242d2b"
       width="3.7420001"
       height="155.20799"
       id="rect35" /><path
       style="fill:#242d2b"
       d="m 194.867,107.976 -6.249,18.226 c 0,0 10.649,24.943 51.977,24.943 41.328,0 52.239,-24.939 52.239,-24.939 l -6.249,-18.23 -91.718,0 0,0 z"
       id="path37"
       inkscape:connector-curvature="0" /></g><path
     style="fill:#2a3633"
     d="m 184.09683,63.241948 -9.28017,23.719318 c 0,0 15.81447,32.460834 77.18927,32.460834 l -0.45591,-56.180152 -67.45319,0 z"
     id="path39"
     inkscape:connector-curvature="0" /><path
     style="fill:#181e1d"
     d="m 184.09683,63.241948 -2.87805,8.775341 62.79749,16.069688 c 4.80717,1.285783 12.60228,1.285783 17.40943,0 l 61.75202,-15.787284 -2.87806,-9.052539 -136.20134,0 0,-0.0053 z"
     id="path41"
     inkscape:connector-curvature="0" /><path
     style="fill:#2a3633"
     d="m 261.42423,84.945397 c -4.80717,1.280577 -12.60228,1.280577 -17.40944,0 L 137.67516,56.429119 c -4.80716,-1.294893 -4.80716,-3.374531 0,-4.665519 L 244.01479,23.247322 c 4.80716,-1.290989 12.60227,-1.290989 17.39755,0 L 367.76384,51.7636 c 4.80717,1.290988 4.80717,3.369325 0,4.665519 L 261.42423,84.945397 Z"
     id="path43"
     inkscape:connector-curvature="0" /><g
     id="g45"
     transform="matrix(1.4850659,0,0,1.3014001,-105.29351,-77.278023)"><path
       style="fill:#bc992f"
       d="m 281.594,113.989 c -0.535,0 -0.973,0.438 -0.973,0.973 l 0,39.363 c 0,0.535 0.438,0.969 0.973,0.969 0.535,0 0.973,-0.434 0.973,-0.969 l 0,-39.363 c -0.004,-0.535 -0.442,-0.973 -0.973,-0.973 z"
       id="path47"
       inkscape:connector-curvature="0" /><path
       style="fill:#bc992f"
       d="m 281.848,114.023 -40.632,-12.685 c -0.513,-0.161 -1.051,0.123 -1.212,0.636 -0.161,0.513 0.123,1.055 0.636,1.216 l 40.632,12.685 c 0.513,0.161 1.051,-0.123 1.212,-0.632 0.161,-0.517 -0.123,-1.063 -0.636,-1.22 z"
       id="path49"
       inkscape:connector-curvature="0" /><ellipse
       style="fill:#bc992f"
       cx="281.53"
       cy="135.75101"
       rx="2.7090001"
       ry="3.0610001"
       id="ellipse51" /><path
       style="fill:#bc992f"
       d="m 280.643,138.258 c 0,0 -2.683,3.087 -2.683,4.962 0,0.778 -0.03,5.122 -0.052,8.288 -0.007,1.916 -1.433,3.398 -1.433,3.398 0,1.078 10.084,1.078 10.084,0 0,0 -1.418,-1.441 -1.433,-3.311 -0.03,-3.087 -0.06,-7.356 -0.06,-8.232 0,-2.017 -2.668,-5.104 -2.668,-5.104 l -1.755,0 0,-10e-4 z"
       id="path53"
       inkscape:connector-curvature="0" /></g><ellipse
     style="fill:#2b2b2a"
     cx="253.00687"
     cy="56.084236"
     rx="7.5411644"
     ry="4.0903001"
     id="ellipse55" /><g
     id="g57" /><g
     id="g59" /><g
     id="g61" /><g
     id="g63" /><g
     id="g65" /><g
     id="g67" /><g
     id="g69" /><g
     id="g71" /><g
     id="g73" /><g
     id="g75" /><g
     id="g77" /><g
     id="g79" /><g
     id="g81" /><g
     id="g83" /><g
     id="g85" /></svg>