<?xml version="1.0" encoding="UTF-8" standalone="no"?>
<!-- Generator: Adobe Illustrator 19.0.0, SVG Export Plug-In . SVG Version: 6.00 Build 0)  -->

<svg
   xmlns:dc="http://purl.org/dc/elements/1.1/"
   xmlns:cc="http://creativecommons.org/ns#"
   xmlns:rdf="http://www.w3.org/1999/02/22-rdf-syntax-ns#"
   xmlns:svg="http://www.w3.org/2000/svg"
   xmlns="http://www.w3.org/2000/svg"
   xmlns:sodipodi="http://sodipodi.sourceforge.net/DTD/sodipodi-0.dtd"
   xmlns:inkscape="http://www.inkscape.org/namespaces/inkscape"
   version="1.1"
   id="Capa_1"
   x="0px"
   y="0px"
   viewBox="0 0 30 19.999999"
   xml:space="preserve"
   inkscape:version="0.91 r13725"
   sodipodi:docname="mailcopy.svg"
   width="30"
   height="20"><metadata
     id="metadata41"><rdf:RDF><cc:Work
         rdf:about=""><dc:format>image/svg+xml</dc:format><dc:type
           rdf:resource="http://purl.org/dc/dcmitype/StillImage" /><dc:title></dc:title></cc:Work></rdf:RDF></metadata><defs
     id="defs39" /><sodipodi:namedview
     pagecolor="#ffffff"
     bordercolor="#666666"
     borderopacity="1"
     objecttolerance="10"
     gridtolerance="10"
     guidetolerance="10"
     inkscape:pageopacity="0"
     inkscape:pageshadow="2"
     inkscape:window-width="1027"
     inkscape:window-height="484"
     id="namedview37"
     showgrid="false"
     inkscape:zoom="12.53752"
     inkscape:cx="6.8010961"
     inkscape:cy="12.389058"
     inkscape:window-x="0"
     inkscape:window-y="0"
     inkscape:window-maximized="0"
     inkscape:current-layer="Capa_1" /><g
     id="g3"
     transform="matrix(0.3948868,0,0,0.38551445,0.14099814,-4.4141993)"><path
       d="m 66.097,12.089 -56.9,0 C 4.126,12.089 0,16.215 0,21.286 l 0,32.722 c 0,5.071 4.126,9.197 9.197,9.197 l 56.9,0 c 5.071,0 9.197,-4.126 9.197,-9.197 l 0,-32.721 c 0.001,-5.072 -4.125,-9.198 -9.197,-9.198 z m -4.494,6 -23.956,15.434 -23.956,-15.434 47.912,0 z m 4.494,39.117 -56.9,0 C 7.434,57.206 6,55.771 6,54.009 l 0,-32.552 29.796,19.16 c 0.04,0.025 0.083,0.042 0.124,0.065 0.043,0.024 0.087,0.047 0.131,0.069 0.231,0.119 0.469,0.215 0.712,0.278 0.025,0.007 0.05,0.01 0.075,0.016 0.267,0.063 0.537,0.102 0.807,0.102 10e-4,0 0.002,0 0.002,0 0.002,0 0.003,0 0.004,0 0.27,0 0.54,-0.038 0.807,-0.102 0.025,-0.006 0.05,-0.009 0.075,-0.016 0.243,-0.063 0.48,-0.159 0.712,-0.278 0.044,-0.022 0.088,-0.045 0.131,-0.069 0.041,-0.023 0.084,-0.04 0.124,-0.065 l 29.796,-19.16 0,32.551 c -0.001,1.763 -1.436,3.198 -3.199,3.198 z"
       id="path5"
       inkscape:connector-curvature="0" /></g><g
     id="g7"
     transform="translate(0,-55.294)" /><g
     id="g9"
     transform="translate(0,-55.294)" /><g
     id="g11"
     transform="translate(0,-55.294)" /><g
     id="g13"
     transform="translate(0,-55.294)" /><g
     id="g15"
     transform="translate(0,-55.294)" /><g
     id="g17"
     transform="translate(0,-55.294)" /><g
     id="g19"
     transform="translate(0,-55.294)" /><g
     id="g21"
     transform="translate(0,-55.294)" /><g
     id="g23"
     transform="translate(0,-55.294)" /><g
     id="g25"
     transform="translate(0,-55.294)" /><g
     id="g27"
     transform="translate(0,-55.294)" /><g
     id="g29"
     transform="translate(0,-55.294)" /><g
     id="g31"
     transform="translate(0,-55.294)" /><g
     id="g33"
     transform="translate(0,-55.294)" /><g
     id="g35"
     transform="translate(0,-55.294)" /></svg>