<?xml version="1.0" encoding="UTF-8" standalone="no"?>
<!-- Generator: Adobe Illustrator 19.0.0, SVG Export Plug-In . SVG Version: 6.00 Build 0)  -->

<svg
   xmlns:dc="http://purl.org/dc/elements/1.1/"
   xmlns:cc="http://creativecommons.org/ns#"
   xmlns:rdf="http://www.w3.org/1999/02/22-rdf-syntax-ns#"
   xmlns:svg="http://www.w3.org/2000/svg"
   xmlns="http://www.w3.org/2000/svg"
   xmlns:sodipodi="http://sodipodi.sourceforge.net/DTD/sodipodi-0.dtd"
   xmlns:inkscape="http://www.inkscape.org/namespaces/inkscape"
   version="1.1"
   id="Layer_1"
   x="0px"
   y="0px"
   viewBox="0 0 31.999999 23.999999"
   xml:space="preserve"
   inkscape:version="0.91 r13725"
   sodipodi:docname="maill.svg"
   width="32"
   height="24"><metadata
     id="metadata49"><rdf:RDF><cc:Work
         rdf:about=""><dc:format>image/svg+xml</dc:format><dc:type
           rdf:resource="http://purl.org/dc/dcmitype/StillImage" /><dc:title></dc:title></cc:Work></rdf:RDF></metadata><defs
     id="defs47" /><sodipodi:namedview
     pagecolor="#ffffff"
     bordercolor="#666666"
     borderopacity="1"
     objecttolerance="10"
     gridtolerance="10"
     guidetolerance="10"
     inkscape:pageopacity="0"
     inkscape:pageshadow="2"
     inkscape:window-width="640"
     inkscape:window-height="480"
     id="namedview45"
     showgrid="false"
     inkscape:zoom="5.1805366"
     inkscape:cx="7.037246"
     inkscape:cy="6.0951794"
     inkscape:window-x="0"
     inkscape:window-y="0"
     inkscape:window-maximized="0"
     inkscape:current-layer="Layer_1" /><g
     id="g3"
     transform="matrix(0.08686438,0,0,0.09443419,0.38606032,-5.0787503)"><path
       style="fill:#c3c6c8"
       d="m 356.941,88.637 c 0,-13.75 -11.25,-25 -25,-25 l -299.441,0 c -13.75,0 -25,11.25 -25,25 l 0,187.168 c 0,13.75 11.25,25 25,25 l 299.441,0 c 13.75,0 25,-11.25 25,-25 l 0,-187.168 z"
       id="path5"
       inkscape:connector-curvature="0" /><path
       style="fill:#e8e8e8"
       d="M 182.221,156.933 7.5,268.704 l 0,7.1 c 0,13.75 11.25,25 25,25 l 299.441,0 c 13.75,0 25,-11.25 25,-25 l 0,-7.1 -174.72,-111.771 z"
       id="path7"
       inkscape:connector-curvature="0" /><path
       style="fill:#e8e8e8"
       d="m 182.221,207.509 174.72,-111.773 0,-7.1 c 0,-13.75 -11.25,-25 -25,-25 l -299.441,0 c -13.75,0 -25,11.25 -25,25 l 0,7.1 174.721,111.773 z"
       id="path9"
       inkscape:connector-curvature="0" /><path
       style="fill:#005cb9"
       d="M 355.599,80.595 182.221,191.509 8.843,80.595 C 7.977,83.123 7.5,85.826 7.5,88.637 l 0,7.1 174.721,111.772 174.72,-111.773 0,-7.1 c 0,-2.81 -0.476,-5.513 -1.342,-8.041 z"
       id="path11"
       inkscape:connector-curvature="0" /><path
       style="fill:#071c2c"
       d="m 331.941,56.137 -299.441,0 C 14.58,56.137 0,70.717 0,88.637 l 0,187.168 c 0,17.92 14.58,32.5 32.5,32.5 l 299.441,0 c 17.921,0 32.5,-14.58 32.5,-32.5 l 0,-187.168 c 0,-17.921 -14.579,-32.5 -32.5,-32.5 z M 15,109.438 128.773,182.221 15,255.004 15,109.438 Z m 334.441,166.367 c 0,9.649 -7.851,17.5 -17.5,17.5 l -299.441,0 c -9.649,0 -17.5,-7.851 -17.5,-17.5 l 0,-2.994 127.69,-81.687 35.488,22.703 c 1.232,0.788 2.637,1.182 4.042,1.182 1.405,0 2.81,-0.394 4.042,-1.182 l 35.487,-22.702 127.691,81.686 0,2.994 10e-4,0 z m 0,-20.802 -113.773,-72.783 113.773,-72.783 0,145.566 z m 0,-163.372 L 182.221,198.605 15,91.631 15,88.637 c 0,-9.649 7.851,-17.5 17.5,-17.5 l 299.441,0 c 9.649,0 17.5,7.851 17.5,17.5 l 0,2.994 z"
       id="path13"
       inkscape:connector-curvature="0" /></g><g
     id="g15"
     transform="translate(0,-340.44101)" /><g
     id="g17"
     transform="translate(0,-340.44101)" /><g
     id="g19"
     transform="translate(0,-340.44101)" /><g
     id="g21"
     transform="translate(0,-340.44101)" /><g
     id="g23"
     transform="translate(0,-340.44101)" /><g
     id="g25"
     transform="translate(0,-340.44101)" /><g
     id="g27"
     transform="translate(0,-340.44101)" /><g
     id="g29"
     transform="translate(0,-340.44101)" /><g
     id="g31"
     transform="translate(0,-340.44101)" /><g
     id="g33"
     transform="translate(0,-340.44101)" /><g
     id="g35"
     transform="translate(0,-340.44101)" /><g
     id="g37"
     transform="translate(0,-340.44101)" /><g
     id="g39"
     transform="translate(0,-340.44101)" /><g
     id="g41"
     transform="translate(0,-340.44101)" /><g
     id="g43"
     transform="translate(0,-340.44101)" /></svg>