<?xml version="1.0" encoding="UTF-8" standalone="no"?>
<!-- Generator: Adobe Illustrator 19.0.0, SVG Export Plug-In . SVG Version: 6.00 Build 0)  -->

<svg
   xmlns:dc="http://purl.org/dc/elements/1.1/"
   xmlns:cc="http://creativecommons.org/ns#"
   xmlns:rdf="http://www.w3.org/1999/02/22-rdf-syntax-ns#"
   xmlns:svg="http://www.w3.org/2000/svg"
   xmlns="http://www.w3.org/2000/svg"
   xmlns:sodipodi="http://sodipodi.sourceforge.net/DTD/sodipodi-0.dtd"
   xmlns:inkscape="http://www.inkscape.org/namespaces/inkscape"
   version="1.1"
   id="Layer_1"
   x="0px"
   y="0px"
   viewBox="0 0 40.000002 25.000001"
   xml:space="preserve"
   inkscape:version="0.91 r13725"
   sodipodi:docname="mail.svg"
   width="40"
   height="25"><metadata
     id="metadata45"><rdf:RDF><cc:Work
         rdf:about=""><dc:format>image/svg+xml</dc:format><dc:type
           rdf:resource="http://purl.org/dc/dcmitype/StillImage" /><dc:title></dc:title></cc:Work></rdf:RDF></metadata><defs
     id="defs43" /><sodipodi:namedview
     pagecolor="#ffffff"
     bordercolor="#666666"
     borderopacity="1"
     objecttolerance="10"
     gridtolerance="10"
     guidetolerance="10"
     inkscape:pageopacity="0"
     inkscape:pageshadow="2"
     inkscape:window-width="640"
     inkscape:window-height="480"
     id="namedview41"
     showgrid="false"
     inkscape:zoom="3.330887"
     inkscape:cx="45.09162"
     inkscape:cy="24.092616"
     inkscape:window-x="0"
     inkscape:window-y="0"
     inkscape:window-maximized="0"
     inkscape:current-layer="Layer_1" /><g
     id="g3"
     transform="matrix(0.12288138,0,0,0.12312427,1.2008803,-4.4564421)"><path
       style="fill:#ffdb77"
       d="m 268.727,59.362 c -3.471,-2.903 -7.939,-4.655 -12.819,-4.655 l -228.408,0 c -4.88,0 -9.347,1.752 -12.819,4.655 l 127.023,82.341 127.023,-82.341 z"
       id="path5"
       inkscape:connector-curvature="0" /><path
       style="fill:#ffdb77"
       d="M 268.727,59.362 141.704,141.703 14.681,59.362 C 10.294,63.031 7.5,68.542 7.5,74.708 l 0,133.991 c 0,11.046 8.954,20 20,20 l 228.409,0 c 11.046,0 20,-8.954 20,-20 l 0,-133.991 c 0,-6.166 -2.795,-11.677 -7.182,-15.346 z"
       id="path7"
       inkscape:connector-curvature="0" /><path
       style="fill:#22313f"
       d="m 283.408,208.699 0,-133.991 c 0,-15.279 -12.421,-27.5 -27.5,-27.5 l -228.408,0 C 12.408,47.208 0,59.443 0,74.708 l 0,133.991 c 0,15.104 12.285,27.5 27.5,27.5 l 228.408,0 c 15.224,0 27.5,-12.407 27.5,-27.5 z m -84.317,-95.258 68.088,-44.137 c 0.8,1.666 1.229,3.507 1.229,5.404 l 0,131.436 -69.317,-92.703 z M 15,206.145 15,74.708 c 0,-1.897 0.429,-3.738 1.229,-5.404 L 84.317,113.441 15,206.145 Z M 141.704,132.766 32.859,62.207 l 217.691,0 -108.846,70.559 z M 27.5,221.199 c -1.555,0 -3.039,-0.299 -4.414,-0.82 l 73.846,-98.76 40.692,26.378 c 2.483,1.609 5.678,1.608 8.16,0 l 40.692,-26.378 73.846,98.76 c -1.375,0.521 -2.859,0.82 -4.414,0.82 l -228.408,0 z"
       id="path9"
       inkscape:connector-curvature="0" /></g><g
     id="g11"
     transform="translate(0,-258.40799)" /><g
     id="g13"
     transform="translate(0,-258.40799)" /><g
     id="g15"
     transform="translate(0,-258.40799)" /><g
     id="g17"
     transform="translate(0,-258.40799)" /><g
     id="g19"
     transform="translate(0,-258.40799)" /><g
     id="g21"
     transform="translate(0,-258.40799)" /><g
     id="g23"
     transform="translate(0,-258.40799)" /><g
     id="g25"
     transform="translate(0,-258.40799)" /><g
     id="g27"
     transform="translate(0,-258.40799)" /><g
     id="g29"
     transform="translate(0,-258.40799)" /><g
     id="g31"
     transform="translate(0,-258.40799)" /><g
     id="g33"
     transform="translate(0,-258.40799)" /><g
     id="g35"
     transform="translate(0,-258.40799)" /><g
     id="g37"
     transform="translate(0,-258.40799)" /><g
     id="g39"
     transform="translate(0,-258.40799)" /></svg>