<?xml version="1.0" encoding="UTF-8"?>
<svg width="16px" height="12px" viewBox="0 0 16 12" version="1.1" xmlns="http://www.w3.org/2000/svg" xmlns:xlink="http://www.w3.org/1999/xlink">
    <!-- Generator: Sketch 50.2 (55047) - http://www.bohemiancoding.com/sketch -->
    <title>mail-small</title>
    <desc>Created with Sketch.</desc>
    <defs></defs>
    <g id="Page-1" stroke="none" stroke-width="1" fill="none" fill-rule="evenodd">
        <g id="mail-small" fill-rule="nonzero">
            <path d="M16,1.15951562 C16,0.521782028 15.5170859,0 14.9268575,0 L2.07314253,0 C1.48291414,0 1,0.521782028 1,1.15951562 L1,9.84048438 C1,10.478218 1.48291414,11 2.07314253,11 L14.9268575,11 C15.5170859,11 16,10.478218 16,9.84048438 L16,1.15951562 Z" id="path5" fill="#C3C6C8"></path>
            <path d="M8.50002146,5 L1,10.4381842 L1,10.7836326 C1,11.4526347 1.48291414,12 2.07314253,12 L14.9268575,12 C15.5170859,12 16,11.4526347 16,10.7836326 L16,10.4381842 L8.50002146,5 Z" id="path7" fill="#E8E8E8"></path>
            <path d="M8.50002146,7 L16,1.56179408 L16,1.21635053 C16,0.547357739 15.5170859,0 14.9268575,0 L2.07314253,0 C1.48291414,0 1,0.547357739 1,1.21635053 L1,1.56179408 L8.50002146,7 Z" id="path9" fill="#E8E8E8"></path>
            <path d="M15.9423937,1 L8.50002146,6.24358227 L1.05764922,1 C1.02047556,1.119514 1,1.24730132 1,1.38019446 L1,1.71585483 L8.50002146,7 L16,1.71580755 L16,1.38014719 C16,1.24730132 15.9795674,1.119514 15.9423937,1 Z" id="path11" fill="#005CB9"></path>
            <path d="M13.6623349,0 L1.33766508,0 C0.600097135,0 0,0.636004568 0,1.41770566 L0,9.58229434 C0,10.3639954 0.600097135,11 1.33766508,11 L13.6623349,11 C14.399944,11 15,10.3639954 15,9.58229434 L15,1.41770566 C15,0.635960947 14.399944,0 13.6623349,0 Z M0.617383884,2.3250809 L5.30015832,5.5 L0.617383884,8.6749191 L0.617383884,2.3250809 Z M14.3826161,9.58229434 C14.3826161,10.0032002 14.0594774,10.3456743 13.6623349,10.3456743 L1.33766508,10.3456743 C0.940522609,10.3456743 0.617383884,10.0032002 0.617383884,9.58229434 L0.617383884,9.45169094 L5.87296709,5.88836411 L7.33361504,6.87870785 C7.38432284,6.91308176 7.44215113,6.93026871 7.49997942,6.93026871 C7.55780771,6.93026871 7.615636,6.91308176 7.6663438,6.87870785 L9.12695059,5.88840773 L14.382575,9.45169094 L14.382575,9.58229434 L14.3826161,9.58229434 Z M14.3826161,8.67487548 L9.69984168,5.49995638 L14.3826161,2.32503728 L14.3826161,8.67487548 Z M14.3826161,1.54830906 L7.50002058,6.21469814 L0.617383884,1.54830906 L0.617383884,1.41770566 C0.617383884,0.996799753 0.940522609,0.654325688 1.33766508,0.654325688 L13.6623349,0.654325688 C14.0594774,0.654325688 14.3826161,0.996799753 14.3826161,1.41770566 L14.3826161,1.54830906 Z" id="path13" fill="#071C2C"></path>
        </g>
    </g>
</svg>