<?xml version="1.0" encoding="UTF-8" standalone="no"?>
<!-- Generator: Adobe Illustrator 19.0.0, SVG Export Plug-In . SVG Version: 6.00 Build 0)  -->

<svg
   xmlns:dc="http://purl.org/dc/elements/1.1/"
   xmlns:cc="http://creativecommons.org/ns#"
   xmlns:rdf="http://www.w3.org/1999/02/22-rdf-syntax-ns#"
   xmlns:svg="http://www.w3.org/2000/svg"
   xmlns="http://www.w3.org/2000/svg"
   xmlns:sodipodi="http://sodipodi.sourceforge.net/DTD/sodipodi-0.dtd"
   xmlns:inkscape="http://www.inkscape.org/namespaces/inkscape"
   version="1.1"
   id="Layer_1"
   x="0px"
   y="0px"
   viewBox="0 0 504.123 504.123"
   style="enable-background:new 0 0 504.123 504.123;"
   xml:space="preserve"
   inkscape:version="0.91 r13725"
   sodipodi:docname="nerd.svg"><metadata
     id="metadata97"><rdf:RDF><cc:Work
         rdf:about=""><dc:format>image/svg+xml</dc:format><dc:type
           rdf:resource="http://purl.org/dc/dcmitype/StillImage" /></cc:Work></rdf:RDF></metadata><defs
     id="defs95" /><sodipodi:namedview
     pagecolor="#ffffff"
     bordercolor="#666666"
     borderopacity="1"
     objecttolerance="10"
     gridtolerance="10"
     guidetolerance="10"
     inkscape:pageopacity="0"
     inkscape:pageshadow="2"
     inkscape:window-width="948"
     inkscape:window-height="645"
     id="namedview93"
     showgrid="false"
     inkscape:zoom="1.3240991"
     inkscape:cx="138.9757"
     inkscape:cy="362.89154"
     inkscape:window-x="0"
     inkscape:window-y="0"
     inkscape:window-maximized="0"
     inkscape:current-layer="Layer_1" /><g
     id="g3"><path
       style="fill:#1A2021;"
       d="M228.218,361.913c0,19.503-15.817,124.668-35.336,124.668c-19.495,0-35.304-105.173-35.304-124.668   c0-19.495,15.817-35.32,35.304-35.32C212.401,326.593,228.218,342.418,228.218,361.913z"
       id="path5" /><path
       style="fill:#1A2021;"
       d="M346.577,361.913c0,19.503-15.817,124.668-35.336,124.668c-19.495,0-35.304-105.173-35.304-124.668   c0-19.495,15.817-35.32,35.304-35.32C330.76,326.593,346.577,342.418,346.577,361.913z"
       id="path7" /></g><path
     style="fill:#7F0E0E;"
     d="M351.712,315.242c0,126.33-44.599,84.259-99.643,84.259c-55.028,0-99.643,42.071-99.643-84.259  c0-72.231,44.631-130.781,99.643-130.781C307.098,184.47,351.712,243.019,351.712,315.242z"
     id="path9" /><path
     style="fill:#ACC1D1;"
     d="M232.637,487.219c0,14.935-17.802,16.904-39.739,16.904s-39.739-1.961-39.739-16.904  c0-14.943,17.802-35.509,39.739-35.509S232.637,472.277,232.637,487.219z"
     id="path11" /><path
     style="fill:#91B4C9;"
     d="M232.637,487.219c0,14.935-17.802,16.904-39.739,16.904s-39.739-1.961-39.739-16.904"
     id="path13" /><path
     style="fill:#ACC1D1;"
     d="M350.988,487.219c0,14.935-17.802,16.904-39.739,16.904s-39.739-1.961-39.739-16.904  c0-14.943,17.802-35.509,39.739-35.509S350.988,472.277,350.988,487.219z"
     id="path15" /><path
     style="fill:#91B4C9;"
     d="M350.988,487.219c0,14.935-17.802,16.904-39.739,16.904s-39.739-1.961-39.739-16.904"
     id="path17" /><path
     style="fill:#F9BD82;"
     d="M381.023,124.258c0,63.008-57.738,94.681-128.937,94.681c-71.215,0-128.969-31.673-128.969-94.681  C123.116,61.235,180.87,0,252.085,0C323.285,0,381.023,61.235,381.023,124.258z"
     id="path19" /><path
     style="fill:#EDA366;"
     d="M381.023,124.258c0,63.008-57.738,94.681-128.937,94.681c-71.215,0-128.969-31.673-128.969-94.681"
     id="path21" /><circle
     style="fill:#113E49;"
     cx="190.748"
     cy="100.982"
     r="11.532"
     id="circle23" /><path
     d="M202.279,100.982c0,6.388-5.167,11.54-11.54,11.54c-6.372,0-11.524-5.152-11.524-11.54"
     id="path25" /><circle
     style="fill:#113E49;"
     cx="313.423"
     cy="100.982"
     r="11.532"
     id="circle29" /><path
     d="M301.867,100.982c0,6.388,5.151,11.54,11.54,11.54c6.372,0,11.524-5.152,11.524-11.54"
     id="path31" /><path
     style="fill:#000000"
     d="m 226.39405,159.02337 c 0.76962,0 1.57907,0.30434 2.19579,0.98738 7.23621,7.7448 16.84037,12.00829 27.04199,12.00829 l 0.0205,0 c 10.20162,0 19.80578,-4.27451 27.00216,-11.99727 1.2039,-1.31238 3.17741,-1.34543 4.41214,-0.011 1.22445,1.26968 1.24501,3.38491 0.0206,4.7083 -8.35916,9.01448 -19.55267,13.99269 -31.42458,13.99269 l -0.0206,0 c -11.88219,0 -23.04486,-4.94654 -31.48496,-13.97066 -1.18463,-1.29034 -1.18463,-3.44963 0,-4.72895 0.61672,-0.6858 1.40689,-0.98876 2.2369,-0.98876 z"
     id="path33"
     inkscape:connector-curvature="0" /><path
     style="fill:#EDA366;"
     d="M345.309,291.643c4.742-14.344-9.862-32.02-32.603-39.534  c-22.709-7.491-138.398-32.713-143.155-18.408c-4.71,14.336,103.353,62.818,126.078,70.309  C318.346,311.517,340.59,305.971,345.309,291.643z"
     id="path35" /><path
     style="fill:#F9BD82;"
     d="M158.822,291.643c-4.742-14.344,9.862-32.02,32.603-39.534  c22.709-7.491,138.398-32.713,143.155-18.408c4.71,14.336-103.353,62.818-126.078,70.309  C185.785,311.517,163.541,305.971,158.822,291.643z"
     id="path37" /><path
     style="fill:#5F7277;"
     d="M296.369,240.569c-0.859-3.285-1.449-6.412-1.906-9.452c-2.213,0.268-4.466,0.551-6.774,0.859  c0.362,4.506,1.15,9.492,2.529,14.746c1.709,6.498,3.97,12.304,6.412,16.927c2.513-1.371,4.955-2.725,7.31-4.072  C301.048,254.7,298.338,248.084,296.369,240.569z"
     id="path39" /><circle
     style="fill:#0698BF;"
     cx="291.32"
     cy="240.561"
     r="13.627"
     id="circle41" /><circle
     style="fill:#A3E1EF;"
     cx="290.265"
     cy="239.025"
     r="7.633"
     id="circle43" /><path
     style="fill:#7F0E0E;"
     d="M252.077,0c-48.813,0-91.301,28.782-113.199,67.19c12.477,1.095,71.751,4.427,94.035-27.806  l-0.646,20.346l24.277-21.662l1.323,27.569l17.723-25.6l7.877,17.069L290.02,36.1l15.754,14.438l2.631-21.662l22.969,26.915V40.038  l32.106,24.34C341.142,27.412,299.67,0,252.077,0z"
     id="path49" /><g
     id="g51"><path
       style="fill:#473D38;"
       d="M217.765,132.592H173.45c-10.854,0-19.692-8.83-19.692-19.692V96.161   c0-10.862,8.838-19.692,19.692-19.692h44.316c10.862,0,19.692,8.83,19.692,19.692V112.9   C237.458,123.762,228.628,132.592,217.765,132.592z M173.45,84.346c-6.506,0-11.815,5.301-11.815,11.815V112.9   c0,6.514,5.309,11.815,11.815,11.815h44.316c6.514,0,11.815-5.301,11.815-11.815V96.161c0-6.514-5.301-11.815-11.815-11.815H173.45   z"
       id="path53" /><rect
       x="120.942"
       y="100.596"
       style="fill:#473D38;"
       width="36.754"
       height="7.877"
       id="rect55" /><path
       style="fill:#473D38;"
       d="M330.673,132.592h-44.316c-10.854,0-19.692-8.83-19.692-19.692V96.161   c0-10.862,8.838-19.692,19.692-19.692h44.316c10.862,0,19.692,8.83,19.692,19.692V112.9   C350.366,123.762,341.536,132.592,330.673,132.592z M286.358,84.346c-6.506,0-11.815,5.301-11.815,11.815V112.9   c0,6.514,5.309,11.815,11.815,11.815h44.316c6.514,0,11.815-5.301,11.815-11.815V96.161c0-6.514-5.301-11.815-11.815-11.815   H286.358z"
       id="path57" /><rect
       x="346.427"
       y="100.596"
       style="fill:#473D38;"
       width="36.754"
       height="7.877"
       id="rect59" /><rect
       x="233.551"
       y="92.223"
       style="fill:#473D38;"
       width="37.085"
       height="7.877"
       id="rect61" /></g><g
     id="g63" /><g
     id="g65" /><g
     id="g67" /><g
     id="g69" /><g
     id="g71" /><g
     id="g73" /><g
     id="g75" /><g
     id="g77" /><g
     id="g79" /><g
     id="g81" /><g
     id="g83" /><g
     id="g85" /><g
     id="g87" /><g
     id="g89" /><g
     id="g91" /></svg>