<?xml version="1.0" encoding="iso-8859-1"?>
<!-- Generator: Adobe Illustrator 19.0.0, SVG Export Plug-In . SVG Version: 6.00 Build 0)  -->
<svg version="1.1" id="Layer_1" xmlns="http://www.w3.org/2000/svg" xmlns:xlink="http://www.w3.org/1999/xlink" x="0px" y="0px"
	 viewBox="0 0 285.097 285.097" style="enable-background:new 0 0 285.097 285.097;" xml:space="preserve">
<g>
	
		<rect x="207.453" y="22.622" transform="matrix(-0.7071 -0.7071 0.7071 -0.7071 374.6592 247.9944)" style="fill:#28D2E4;" width="62.476" height="47.562"/>
	
		<rect x="91.281" y="120.423" transform="matrix(-0.7071 -0.7071 0.7071 -0.7071 94.1947 364.1686)" style="fill:#28D2E4;" width="62.476" height="84.305"/>
	
		<rect x="144.972" y="49.518" transform="matrix(-0.7071 -0.7071 0.7071 -0.7071 249.4041 299.8773)" style="fill:#13829B;" width="83.673" height="97.534"/>
	
		<rect x="26.158" y="182.145" transform="matrix(-0.7071 -0.7071 0.7071 -0.7071 -37.4388 418.6933)" style="fill:#FFDB77;" width="83.673" height="69.911"/>
	<polygon style="fill:#28D2E4;" points="13.694,212.237 72.86,271.403 7.501,277.596 	"/>
	<g>
		<path style="fill:#13829B;" d="M224.417,170.599l-25.376-25.376l34.703-34.703l3.053,3.052c12.329,12.329,12.329,32.318,0,44.647
			L224.417,170.599z"/>
		<path style="fill:#22313F;" d="M282.901,46.374L238.723,2.197c-2.928-2.927-7.677-2.929-10.607,0l-28.911,28.911l-2.191-2.191
			c-2.929-2.927-7.677-2.928-10.607,0l-68.968,68.968c-2.929,2.929-2.929,7.678,0,10.606l2.192,2.191L70.623,159.69l-2.191-2.191
			c-2.929-2.929-7.678-2.929-10.606,0L8.391,206.933c-1.169,1.169-1.994,2.791-2.163,4.597l-6.194,65.359
			c-0.417,4.406,3.053,8.207,7.466,8.207c0.235,0,0.472-0.011,0.708-0.033l65.36-6.194c0,0,0,0,0.001,0
			c1.796-0.17,3.421-0.989,4.595-2.163l49.435-49.435c2.929-2.929,2.929-7.678,0-10.606l-2.191-2.191l49.007-49.006l2.191,2.191
			c2.928,2.927,7.677,2.929,10.607,0l11.829-11.829l20.073,20.072c2.928,2.927,7.677,2.929,10.607,0
			c12.599-12.601,23.823-20.983,23.823-40.007c0-9.367-3.284-18.225-9.29-25.279L256.18,98.69c2.929-2.929,2.929-7.678,0-10.606
			l-2.191-2.191l28.912-28.912C285.829,54.052,285.829,49.303,282.901,46.374z M15.823,269.274l3.834-40.468l36.633,36.633
			L15.823,269.274z M72.861,260.797l-48.56-48.56l38.828-38.828l48.56,48.56L72.861,260.797z M114.801,203.867L81.23,170.296
			l49.007-49.007l33.571,33.572L114.801,203.867z M181.908,151.749c-3.676-3.676-37.855-37.856-46.369-46.369l0,0l-2.191-2.191
			l58.362-58.361l48.56,48.56C233.005,100.652,189.142,144.515,181.908,151.749z M238.544,135.895
			c0,11.52-6.684,16.653-14.127,24.097l-14.77-14.769c11.851-11.851,11.459-11.459,23.95-23.951
			C236.807,125.451,238.544,130.539,238.544,135.895z M243.966,74.702l-33.571-33.571l23.024-23.024l33.571,33.571L243.966,74.702z"
			/>
	</g>
</g>
<g>
</g>
<g>
</g>
<g>
</g>
<g>
</g>
<g>
</g>
<g>
</g>
<g>
</g>
<g>
</g>
<g>
</g>
<g>
</g>
<g>
</g>
<g>
</g>
<g>
</g>
<g>
</g>
<g>
</g>
</svg>
