<?xml version="1.0" encoding="iso-8859-1"?>
<!-- Generator: Adobe Illustrator 19.0.0, SVG Export Plug-In . SVG Version: 6.00 Build 0)  -->
<svg version="1.1" id="Layer_1" xmlns="http://www.w3.org/2000/svg" xmlns:xlink="http://www.w3.org/1999/xlink" x="0px" y="0px"
	 viewBox="0 0 326.744 326.744" style="enable-background:new 0 0 326.744 326.744;" xml:space="preserve">
<g>
	<g>
		<path style="fill:#FF8189;" d="M51.089,31.212l-3.629-14.18c-1.034-4.034,1.422-8.18,5.457-9.213l26.039-6.666
			c4.035-1.032,8.181,1.424,9.213,5.458L91.8,20.792L51.089,31.212z"/>
		
			<rect x="52.61" y="25.728" transform="matrix(-0.9688 0.248 -0.248 -0.9688 153.4992 49.6632)" style="fill:#7D868C;" width="42.023" height="17.543"/>
		
			<rect x="85.301" y="39.151" transform="matrix(-0.9688 0.248 -0.248 -0.9688 249.5299 292.9709)" style="fill:#F6C65B;" width="42.024" height="246.1"/>
		
			<rect x="52.61" y="31.855" transform="matrix(-0.9688 0.248 -0.248 -0.9688 153.4987 49.6644)" style="fill:#5C6670;" width="42.023" height="5.289"/>
		<path style="fill:#F4DBB2;" d="M157.176,276.188l-7.984,41.623c-0.719,3.747-3.295,4.406-5.725,1.465l-27.001-32.667
			L157.176,276.188z"/>
		<path style="fill:#333E48;" d="M144.442,311.17c-2.073,0.531-4.047,1.252-5.915,2.129l4.94,5.977
			c2.43,2.94,5.006,2.282,5.725-1.465l1.46-7.616C148.592,310.324,146.515,310.639,144.442,311.17z"/>
	</g>
	<g>
		<path style="fill:#FF8189;" d="M235.204,20.312l3.049-14.317c0.867-4.072,4.91-6.696,8.983-5.829l26.289,5.599
			c4.073,0.868,6.696,4.91,5.829,8.983l-3.05,14.317L235.204,20.312z"/>
		
			<rect x="232.926" y="24.493" transform="matrix(-0.9781 -0.2083 0.2083 -0.9781 495.3772 118.6908)" style="fill:#7D868C;" width="42.023" height="17.542"/>
		
			<rect x="205.468" y="39.144" transform="matrix(-0.9781 -0.2083 0.2083 -0.9781 414.2083 368.003)" style="fill:#F6C65B;" width="42.023" height="246.098"/>
		
			<rect x="232.925" y="30.623" transform="matrix(-0.9781 -0.2083 0.2083 -0.9781 495.3736 118.6984)" style="fill:#5C6670;" width="42.023" height="5.289"/>
		<path style="fill:#F4DBB2;" d="M221.385,286.914l-25.647,33.739c-2.309,3.038-4.91,2.483-5.78-1.231l-9.673-41.262
			L221.385,286.914z"/>
		<path style="fill:#333E48;" d="M194.433,312.594c-2.093-0.446-4.182-0.676-6.245-0.722l1.77,7.55
			c0.871,3.714,3.471,4.269,5.78,1.231l4.692-6.174C198.528,313.681,196.527,313.039,194.433,312.594z"/>
	</g>
	<g>
		<path style="fill:#FF8189;" d="M191.37,21.393l1.578-14.552c0.449-4.14,4.204-7.16,8.344-6.711l26.722,2.897
			c4.14,0.449,7.161,4.204,6.712,8.344l-1.578,14.553L191.37,21.393z"/>
		
			<rect x="190.307" y="23.609" transform="matrix(-0.9942 -0.1078 0.1078 -0.9942 417.9164 87.3506)" style="fill:#7D868C;" width="42.024" height="17.542"/>
		
			<rect x="176.093" y="40.386" transform="matrix(-0.9942 -0.1078 0.1078 -0.9942 375.4425 347.1643)" style="fill:#FFA400;" width="42.023" height="246.098"/>
		
			<rect x="190.306" y="29.738" transform="matrix(-0.9942 -0.1078 0.1078 -0.9942 417.9139 87.3561)" style="fill:#5C6670;" width="42.023" height="5.29"/>
		<path style="fill:#F4DBB2;" d="M204.729,288.018l-22.084,36.172c-1.988,3.256-4.631,2.97-5.876-0.637l-13.817-40.064
			L204.729,288.018z"/>
		<path style="fill:#333E48;" d="M180.527,316.306c-2.128-0.23-4.229-0.247-6.286-0.083l2.528,7.331
			c1.245,3.607,3.888,3.893,5.876,0.637l4.041-6.618C184.712,316.971,182.656,316.537,180.527,316.306z"/>
	</g>
	<g>
		<path style="fill:#009BDE;" d="M267.133,114.704v187.269c0,13.625-11.147,24.771-24.771,24.771H85.169
			c-13.624,0-24.771-11.146-24.771-24.771V114.704H267.133z"/>
		<path style="fill:#333E48;" d="M134.158,268.908c-3.438,0-6.225,2.787-6.225,6.225c0,3.439,2.787,6.226,6.225,6.226
			c3.439,0,6.226-2.787,6.226-6.226C140.384,271.695,137.597,268.908,134.158,268.908z M134.158,244.964
			c-3.438,0-6.225,2.787-6.225,6.225c0,3.439,2.787,6.226,6.225,6.226c3.439,0,6.226-2.787,6.226-6.226
			C140.384,247.751,137.597,244.964,134.158,244.964z M134.158,292.851c-3.438,0-6.225,2.787-6.225,6.225
			c0,3.44,2.787,6.226,6.225,6.226c3.439,0,6.226-2.786,6.226-6.226C140.384,295.638,137.597,292.851,134.158,292.851z
			 M104.551,173.134c-3.438,0-6.225,2.788-6.225,6.225c0,3.438,2.787,6.226,6.225,6.226c3.439,0,6.227-2.788,6.227-6.226
			C110.777,175.921,107.99,173.134,104.551,173.134z M134.158,221.021c-3.438,0-6.225,2.787-6.225,6.225
			c0,3.439,2.787,6.226,6.225,6.226c3.439,0,6.226-2.787,6.226-6.226C140.384,223.808,137.597,221.021,134.158,221.021z
			 M104.551,125.246c-3.438,0-6.225,2.788-6.225,6.226s2.787,6.226,6.225,6.226c3.439,0,6.227-2.787,6.227-6.226
			C110.777,128.034,107.99,125.246,104.551,125.246z M104.551,149.19c-3.438,0-6.225,2.788-6.225,6.226
			c0,3.439,2.787,6.226,6.225,6.226c3.439,0,6.227-2.787,6.227-6.226C110.777,151.977,107.99,149.19,104.551,149.19z
			 M104.551,197.077c-3.438,0-6.225,2.787-6.225,6.225c0,3.439,2.787,6.227,6.225,6.227c3.439,0,6.227-2.787,6.227-6.227
			C110.777,199.864,107.99,197.077,104.551,197.077z M163.765,292.851c-3.438,0-6.225,2.787-6.225,6.225
			c0,3.44,2.787,6.226,6.225,6.226s6.225-2.786,6.225-6.226C169.99,295.638,167.203,292.851,163.765,292.851z M134.158,125.246
			c-3.438,0-6.225,2.788-6.225,6.226s2.787,6.226,6.225,6.226c3.439,0,6.226-2.787,6.226-6.226
			C140.384,128.034,137.597,125.246,134.158,125.246z M163.765,268.908c-3.438,0-6.225,2.787-6.225,6.225
			c0,3.439,2.787,6.226,6.225,6.226s6.225-2.787,6.225-6.226C169.99,271.695,167.203,268.908,163.765,268.908z M134.158,173.134
			c-3.438,0-6.225,2.788-6.225,6.225c0,3.438,2.787,6.226,6.225,6.226c3.439,0,6.226-2.788,6.226-6.226
			S137.597,173.134,134.158,173.134z M134.158,149.19c-3.438,0-6.225,2.788-6.225,6.226c0,3.439,2.787,6.226,6.225,6.226
			c3.439,0,6.226-2.787,6.226-6.226S137.597,149.19,134.158,149.19z M134.158,197.077c-3.438,0-6.225,2.787-6.225,6.225
			c0,3.439,2.787,6.227,6.225,6.227c3.439,0,6.226-2.787,6.226-6.227C140.384,199.864,137.597,197.077,134.158,197.077z
			 M74.944,197.077c-3.438,0-6.225,2.787-6.225,6.225c0,3.439,2.787,6.227,6.225,6.227c3.439,0,6.226-2.787,6.226-6.227
			C81.17,199.864,78.383,197.077,74.944,197.077z M104.551,221.021c-3.438,0-6.225,2.787-6.225,6.225
			c0,3.439,2.787,6.226,6.225,6.226c3.439,0,6.227-2.787,6.227-6.226C110.777,223.808,107.99,221.021,104.551,221.021z
			 M163.765,244.964c-3.438,0-6.225,2.787-6.225,6.225c0,3.439,2.787,6.226,6.225,6.226s6.225-2.787,6.225-6.226
			C169.99,247.751,167.203,244.964,163.765,244.964z M74.944,244.964c-3.438,0-6.225,2.787-6.225,6.225
			c0,3.439,2.787,6.226,6.225,6.226c3.439,0,6.226-2.787,6.226-6.226C81.17,247.751,78.383,244.964,74.944,244.964z M74.944,221.021
			c-3.438,0-6.225,2.787-6.225,6.225c0,3.439,2.787,6.226,6.225,6.226c3.439,0,6.226-2.787,6.226-6.226
			C81.17,223.808,78.383,221.021,74.944,221.021z M252.587,137.698c3.439,0,6.226-2.787,6.226-6.226
			c0-3.438-2.787-6.226-6.226-6.226c-3.438,0-6.226,2.788-6.226,6.226C246.361,134.911,249.148,137.698,252.587,137.698z
			 M74.944,292.851c-3.438,0-6.225,2.787-6.225,6.225c0,3.44,2.787,6.226,6.225,6.226c3.439,0,6.226-2.786,6.226-6.226
			C81.17,295.638,78.383,292.851,74.944,292.851z M74.944,268.908c-3.438,0-6.225,2.787-6.225,6.225
			c0,3.439,2.787,6.226,6.225,6.226c3.439,0,6.226-2.787,6.226-6.226C81.17,271.695,78.383,268.908,74.944,268.908z
			 M104.551,292.851c-3.438,0-6.225,2.787-6.225,6.225c0,3.44,2.787,6.226,6.225,6.226c3.439,0,6.227-2.786,6.227-6.226
			C110.777,295.638,107.99,292.851,104.551,292.851z M74.944,173.134c-3.438,0-6.225,2.788-6.225,6.225
			c0,3.438,2.787,6.226,6.225,6.226c3.439,0,6.226-2.788,6.226-6.226S78.383,173.134,74.944,173.134z M104.551,244.964
			c-3.438,0-6.225,2.787-6.225,6.225c0,3.439,2.787,6.226,6.225,6.226c3.439,0,6.227-2.787,6.227-6.226
			C110.777,247.751,107.99,244.964,104.551,244.964z M104.551,268.908c-3.438,0-6.225,2.787-6.225,6.225
			c0,3.439,2.787,6.226,6.225,6.226c3.439,0,6.227-2.787,6.227-6.226C110.777,271.695,107.99,268.908,104.551,268.908z
			 M74.944,149.19c-3.438,0-6.225,2.788-6.225,6.226c0,3.439,2.787,6.226,6.225,6.226c3.439,0,6.226-2.787,6.226-6.226
			S78.383,149.19,74.944,149.19z M74.944,125.246c-3.438,0-6.225,2.788-6.225,6.226s2.787,6.226,6.225,6.226
			c3.439,0,6.226-2.787,6.226-6.226C81.17,128.034,78.383,125.246,74.944,125.246z M252.587,197.077
			c-3.438,0-6.226,2.787-6.226,6.225c0,3.439,2.787,6.227,6.226,6.227s6.226-2.787,6.226-6.227
			C258.812,199.864,256.025,197.077,252.587,197.077z M222.98,173.134c-3.439,0-6.226,2.788-6.226,6.225
			c0,3.438,2.787,6.226,6.226,6.226c3.438,0,6.226-2.788,6.226-6.226C229.205,175.921,226.418,173.134,222.98,173.134z
			 M222.98,197.077c-3.439,0-6.226,2.787-6.226,6.225c0,3.439,2.787,6.227,6.226,6.227c3.438,0,6.226-2.787,6.226-6.227
			C229.205,199.864,226.418,197.077,222.98,197.077z M222.98,125.246c-3.439,0-6.226,2.788-6.226,6.226s2.787,6.226,6.226,6.226
			c3.438,0,6.226-2.787,6.226-6.226C229.205,128.034,226.418,125.246,222.98,125.246z M222.98,149.19
			c-3.439,0-6.226,2.788-6.226,6.226c0,3.439,2.787,6.226,6.226,6.226c3.438,0,6.226-2.787,6.226-6.226
			C229.205,151.977,226.418,149.19,222.98,149.19z M222.98,244.964c-3.439,0-6.226,2.787-6.226,6.225
			c0,3.439,2.787,6.226,6.226,6.226c3.438,0,6.226-2.787,6.226-6.226C229.205,247.751,226.418,244.964,222.98,244.964z
			 M222.98,221.021c-3.439,0-6.226,2.787-6.226,6.225c0,3.439,2.787,6.226,6.226,6.226c3.438,0,6.226-2.787,6.226-6.226
			C229.205,223.808,226.418,221.021,222.98,221.021z M252.587,149.19c-3.438,0-6.226,2.788-6.226,6.226
			c0,3.439,2.787,6.226,6.226,6.226s6.226-2.787,6.226-6.226C258.812,151.977,256.025,149.19,252.587,149.19z M252.587,173.134
			c-3.438,0-6.226,2.788-6.226,6.225c0,3.438,2.787,6.226,6.226,6.226s6.226-2.788,6.226-6.226
			C258.812,175.921,256.025,173.134,252.587,173.134z M252.587,221.021c-3.438,0-6.226,2.787-6.226,6.225
			c0,3.439,2.787,6.226,6.226,6.226s6.226-2.787,6.226-6.226C258.812,223.808,256.025,221.021,252.587,221.021z M252.587,292.851
			c-3.438,0-6.226,2.787-6.226,6.225c0,3.44,2.787,6.226,6.226,6.226s6.226-2.786,6.226-6.226
			C258.812,295.638,256.025,292.851,252.587,292.851z M222.98,268.908c-3.439,0-6.226,2.787-6.226,6.225
			c0,3.439,2.787,6.226,6.226,6.226c3.438,0,6.226-2.787,6.226-6.226C229.205,271.695,226.418,268.908,222.98,268.908z
			 M252.587,244.964c-3.438,0-6.226,2.787-6.226,6.225c0,3.439,2.787,6.226,6.226,6.226s6.226-2.787,6.226-6.226
			C258.812,247.751,256.025,244.964,252.587,244.964z M252.587,268.908c-3.438,0-6.226,2.787-6.226,6.225
			c0,3.439,2.787,6.226,6.226,6.226s6.226-2.787,6.226-6.226C258.812,271.695,256.025,268.908,252.587,268.908z M163.765,149.19
			c-3.438,0-6.225,2.788-6.225,6.226c0,3.439,2.787,6.226,6.225,6.226s6.225-2.787,6.225-6.226S167.203,149.19,163.765,149.19z
			 M193.372,268.908c-3.438,0-6.225,2.787-6.225,6.225c0,3.439,2.787,6.226,6.225,6.226c3.439,0,6.226-2.787,6.226-6.226
			C199.598,271.695,196.811,268.908,193.372,268.908z M163.765,221.021c-3.438,0-6.225,2.787-6.225,6.225
			c0,3.439,2.787,6.226,6.225,6.226s6.225-2.787,6.225-6.226C169.99,223.808,167.203,221.021,163.765,221.021z M193.372,292.851
			c-3.438,0-6.225,2.787-6.225,6.225c0,3.44,2.787,6.226,6.225,6.226c3.439,0,6.226-2.786,6.226-6.226
			C199.598,295.638,196.811,292.851,193.372,292.851z M222.98,292.851c-3.439,0-6.226,2.787-6.226,6.225
			c0,3.44,2.787,6.226,6.226,6.226c3.438,0,6.226-2.786,6.226-6.226C229.205,295.638,226.418,292.851,222.98,292.851z
			 M163.765,197.077c-3.438,0-6.225,2.787-6.225,6.225c0,3.439,2.787,6.227,6.225,6.227s6.225-2.787,6.225-6.227
			C169.99,199.864,167.203,197.077,163.765,197.077z M163.765,173.134c-3.438,0-6.225,2.788-6.225,6.225
			c0,3.438,2.787,6.226,6.225,6.226s6.225-2.788,6.225-6.226S167.203,173.134,163.765,173.134z M163.765,125.246
			c-3.438,0-6.225,2.788-6.225,6.226s2.787,6.226,6.225,6.226s6.225-2.787,6.225-6.226
			C169.99,128.034,167.203,125.246,163.765,125.246z M193.372,149.19c-3.438,0-6.225,2.788-6.225,6.226
			c0,3.439,2.787,6.226,6.225,6.226c3.439,0,6.226-2.787,6.226-6.226C199.598,151.977,196.811,149.19,193.372,149.19z
			 M193.372,125.246c-3.438,0-6.225,2.788-6.225,6.226s2.787,6.226,6.225,6.226c3.439,0,6.226-2.787,6.226-6.226
			C199.598,128.034,196.811,125.246,193.372,125.246z M193.372,244.964c-3.438,0-6.225,2.787-6.225,6.225
			c0,3.439,2.787,6.226,6.225,6.226c3.439,0,6.226-2.787,6.226-6.226C199.598,247.751,196.811,244.964,193.372,244.964z
			 M193.372,173.134c-3.438,0-6.225,2.788-6.225,6.225c0,3.438,2.787,6.226,6.225,6.226c3.439,0,6.226-2.788,6.226-6.226
			C199.598,175.921,196.811,173.134,193.372,173.134z M193.372,197.077c-3.438,0-6.225,2.787-6.225,6.225
			c0,3.439,2.787,6.227,6.225,6.227c3.439,0,6.226-2.787,6.226-6.227C199.598,199.864,196.811,197.077,193.372,197.077z
			 M193.372,221.021c-3.438,0-6.225,2.787-6.225,6.225c0,3.439,2.787,6.226,6.225,6.226c3.439,0,6.226-2.787,6.226-6.226
			C199.598,223.808,196.811,221.021,193.372,221.021z"/>
		<path style="fill:#333E48;" d="M267.133,114.704H60.398c-6.84,0-12.385-5.546-12.385-12.385c0-6.84,5.545-12.386,12.385-12.386
			h206.735c6.841,0,12.385,5.545,12.385,12.386C279.518,109.158,273.974,114.704,267.133,114.704z"/>
	</g>
</g>
<g>
</g>
<g>
</g>
<g>
</g>
<g>
</g>
<g>
</g>
<g>
</g>
<g>
</g>
<g>
</g>
<g>
</g>
<g>
</g>
<g>
</g>
<g>
</g>
<g>
</g>
<g>
</g>
<g>
</g>
</svg>
