<?xml version="1.0" encoding="UTF-8"?>
<svg width="66px" height="162px" viewBox="0 0 66 162" version="1.1" xmlns="http://www.w3.org/2000/svg" xmlns:xlink="http://www.w3.org/1999/xlink">
    <!-- Generator: Sketch 50.2 (55047) - http://www.bohemiancoding.com/sketch -->
    <title>shbuilding3</title>
    <desc>Created with Sketch.</desc>
    <defs>
        <rect id="path-1" x="0" y="0" width="159" height="163"></rect>
    </defs>
    <g id="Page-1" stroke="none" stroke-width="1" fill="none" fill-rule="evenodd">
        <g id="chalkboard-copy" transform="translate(-669.000000, -54.000000)">
            <g id="shbuilding3" transform="translate(622.000000, 53.000000)">
                <mask id="mask-2" fill="white">
                    <use xlink:href="#path-1"></use>
                </mask>
                <g id="Mask"></g>
                <g id="Group-4" mask="url(#mask-2)" fill="#FFFFFF" stroke-width="3">
                    <g transform="translate(21.000000, 3.000000)">
                        <path d="M65.754802,90.1294804 C63.4706787,91.0771315 60.9652787,91.6002871 58.337453,91.6002871 C55.9525238,91.6002871 53.6684342,91.1693749 51.5590794,90.3813035 L51.5590794,95.9108565 L65.754802,95.9108565 L65.754802,90.1294804 Z M73.4748595,84.3112449 L73.4748595,146.153412 L65.754802,146.153412 L65.754802,131.937791 L51.5590794,131.937791 L51.5590794,146.153412 L43.839022,146.153412 L43.839022,85.0716074 C40.8275171,81.6686605 39,77.19741 39,72.3001435 C39,62.8479546 45.8079877,54.9827885 54.796912,53.3227691 L54.796912,31.057438 C50.8085224,29.42225 48,25.506849 48,20.936748 C48,16.3666471 50.8085224,12.4512461 54.796912,10.816058 L54.796912,1.13686838e-13 L62.5169694,1.13686838e-13 L62.5169694,10.5897979 C66.8217826,12.0645014 69.9157801,16.1400009 69.9157801,20.936748 C69.9157801,25.7334951 66.8217826,29.8089947 62.5169694,31.2836982 L62.5169694,53.4519823 C71.1875884,55.3586239 77.674906,63.0732483 77.674906,72.3001435 C77.674906,76.8406956 76.1039236,81.0150331 73.4748595,84.3112449 Z M65.754802,124.217734 L65.754802,117.784353 L51.5590794,117.784353 L51.5590794,124.217734 L65.754802,124.217734 Z M65.754802,110.064295 L65.754802,103.630914 L51.5590794,103.630914 L51.5590794,110.064295 L65.754802,110.064295 Z M86.2668511,218.788437 L78.0016013,187.942105 L85.4586042,185.944007 L94.2592427,218.788437 L117.958463,218.788437 L117.958463,226.508495 L0,226.508495 L0,218.788437 L22.8822568,218.788437 L31.8552773,185.300669 L39.3122801,187.298767 L30.8746484,218.788437 L54.796912,218.788437 L54.796912,199.465286 L62.5169694,199.465286 L62.5169694,218.788437 L86.2668511,218.788437 Z" id="shbuilding3" stroke="#962DA2"></path>
                        <path d="M41,80.6000004 L75.5999985,80.6000004 C72.5196705,87.1052508 65.9308769,91.6002871 58.3000018,91.6002871 C50.6691271,91.6002871 44.0803338,87.1052513 41.0000056,80.6000015 Z M41.0001409,64 C44.0805267,57.4949043 50.6692388,53 58.3000018,53 C65.9307648,53 72.5194769,57.4949043 75.5998627,64 L41.0001409,64 Z" id="Combined-Shape" stroke="#7E7E7E"></path>
                        <path d="M48.9489721,25.0234996 L68.9510276,25.0234996 C67.36289,29.0750156 63.4836152,31.936748 58.9499998,31.936748 C54.4163844,31.936748 50.5371097,29.0750156 48.9489721,25.0234996 Z M48.8999996,16.9772321 C50.4562102,12.858524 54.3690702,9.93674801 58.9499998,9.93674801 C63.5309294,9.93674801 67.4437894,12.858524 69,16.9772321 L48.8999996,16.9772321 Z" id="Combined-Shape" stroke="#7E7E7E"></path>
                        <ellipse id="Oval-8" stroke="#7E7E7E" cx="58.6569407" cy="169.251402" rx="32.2290883" ry="32.1669059"></ellipse>
                    </g>
                </g>
            </g>
        </g>
    </g>
</svg>