<?xml version="1.0" encoding="UTF-8"?>
<svg width="66px" height="162px" viewBox="0 0 66 162" version="1.1" xmlns="http://www.w3.org/2000/svg" xmlns:xlink="http://www.w3.org/1999/xlink">
    <!-- Generator: Sketch 50.2 (55047) - http://www.bohemiancoding.com/sketch -->
    <title>shbuilding3</title>
    <desc>Created with Sketch.</desc>
    <defs>
        <rect id="path-1" x="0" y="0" width="159" height="163"></rect>
    </defs>
    <g id="Page-1" stroke="none" stroke-width="1" fill="none" fill-rule="evenodd">
        <g id="chalkboard-copy" transform="translate(-669.000000, -54.000000)">
            <g id="shbuilding3" transform="translate(622.000000, 53.000000)">
                <mask id="mask-2" fill="white">
                    <use xlink:href="#path-1"></use>
                </mask>
                <g id="Mask"></g>
                <g id="Group-4" mask="url(#mask-2)" fill="#FFFFFF">
                    <g transform="translate(21.000000, 3.000000)">
                        <path d="M66.2755704,110.064295 L66.2755704,103.630914 L52.0798478,103.630914 L52.0798478,110.064295 L66.2755704,110.064295 Z M66.2755704,117.784353 L52.0798478,117.784353 L52.0798478,124.217734 L66.2755704,124.217734 L66.2755704,117.784353 Z M66.2755704,131.937791 L52.0798478,131.937791 L52.0798478,137.867118 C54.3635774,137.354833 56.739012,137.084496 59.1777091,137.084496 C61.6164062,137.084496 63.9918408,137.354833 66.2755704,137.867118 L66.2755704,131.937791 Z M73.9956279,140.678425 C84.339461,146.03292 91.4067974,156.818421 91.4067974,169.251402 C91.4067974,175.718337 89.4947344,181.739547 86.2040723,186.782598 L94.7800111,218.788437 L118.479232,218.788437 L118.479232,226.508495 L0.520768387,226.508495 L0.520768387,218.788437 L23.4030252,218.788437 L32.0294164,186.594307 C28.8134992,181.589963 26.9486208,175.638045 26.9486208,169.251402 C26.9486208,156.818421 34.0159573,146.03292 44.3597904,140.678425 L44.3597904,85.1518398 C41.5390107,81.7978656 39.8402561,77.4722748 39.8402561,72.7506842 C39.8402561,63.4108062 46.48742,55.6204611 55.3176804,53.8351033 L55.3176804,31.5225253 C51.170349,29.964262 48.2198191,25.9678502 48.2198191,21.2836348 C48.2198191,16.5994194 51.170349,12.6030075 55.3176804,11.0447442 L55.3176804,1.20792265e-13 L63.0377378,1.20792265e-13 L63.0377378,11.0447442 C67.1850692,12.6030075 70.1355991,16.5994194 70.1355991,21.2836348 C70.1355991,25.9678502 67.1850692,29.964262 63.0377378,31.5225253 L63.0377378,53.8351033 C71.8679982,55.6204611 78.5151621,63.4108062 78.5151621,72.7506842 C78.5151621,77.4722748 76.8164075,81.7978656 73.9956279,85.1518398 L73.9956279,140.678425 Z M66.2755704,90.7092291 C64.0780841,91.5751117 61.6835587,92.0508278 59.1777091,92.0508278 C56.6718595,92.0508278 54.2773341,91.5751117 52.0798478,90.7092291 L52.0798478,95.9108565 L66.2755704,95.9108565 L66.2755704,90.7092291 Z M80.0759446,193.740125 C75.3708467,197.743758 69.4976813,200.420431 63.0377378,201.189976 L63.0377378,218.788437 L86.7876195,218.788437 L80.0759446,193.740125 Z M38.1392484,193.620115 L31.3954168,218.788437 L55.3176804,218.788437 L55.3176804,201.189976 C48.7934027,200.412767 42.8676487,197.690255 38.1392484,193.620115 Z" id="shbuilding3" stroke="#962DA2" stroke-width="3"></path>
                        <circle id="Oval-9" stroke="#7D7D7D" stroke-width="2" cx="59.5" cy="72.5" r="11.5"></circle>
                        <circle id="Oval-9-Copy-2" stroke="#7D7D7D" stroke-width="3" cx="59.5" cy="167.5" r="23.5"></circle>
                        <circle id="Oval-9-Copy" stroke="#7D7D7D" stroke-width="1" cx="59.5" cy="21.5" r="5.5"></circle>
                    </g>
                </g>
            </g>
        </g>
    </g>
</svg>