<?xml version="1.0" encoding="UTF-8"?>
<svg width="21px" height="21px" viewBox="0 0 21 21" version="1.1" xmlns="http://www.w3.org/2000/svg" xmlns:xlink="http://www.w3.org/1999/xlink">
    <!-- Generator: Sketch 50.2 (55047) - http://www.bohemiancoding.com/sketch -->
    <title>telephone</title>
    <desc>Created with Sketch.</desc>
    <defs></defs>
    <g id="Page-1" stroke="none" stroke-width="1" fill="none" fill-rule="evenodd">
        <g id="telephone" fill-rule="nonzero">
            <path d="M7.66182532,19.1644217 L1.83551024,13.3381132 C-0.0911195292,11.4114723 -0.550394554,8.4880079 0.692649891,6.06344137 C0.731094982,5.98837376 0.781045243,5.91982847 0.840677671,5.86023621 L3.07345027,3.62745063 C3.91004625,2.79084979 5.27130226,2.79084979 6.10789823,3.62745063 L7.39631518,4.91587506 C8.23291115,5.7524759 8.23291115,7.11373982 7.39631518,7.95034066 L6.81554718,8.53111203 C6.22039772,9.12626495 6.22047875,10.0945278 6.81554718,10.6895997 L10.310445,14.1845178 C10.9055134,14.7795897 11.8737707,14.7795897 12.4689201,14.1845178 L13.0496881,13.6037465 C13.8862841,12.7671456 15.2475401,12.7671456 16.0841361,13.6037465 L17.372553,14.8921709 C18.209149,15.7287717 18.209149,17.0900357 17.372553,17.9265555 C14.9456914,20.3534312 15.0940433,20.2267115 14.9364954,20.3074507 C12.5119025,21.5503809 9.58845509,21.0910627 7.66182532,19.1644217 Z" id="Shape" fill="#80D0E1"></path>
            <g id="Group" transform="translate(10.000000, 0.000000)" fill="#FFC72D">
                <path d="M3.4181561,7.76572 C3.07532195,7.45336 3.07532195,6.94692 3.4181561,6.63456 L7.47114146,2.94184 C7.81397561,2.62948 8.36982439,2.62948 8.71265854,2.94184 C9.05549268,3.2542 9.05549268,3.76064 8.71265854,4.073 L4.65967317,7.76572 C4.31679512,8.07808 3.76090244,8.07808 3.4181561,7.76572 Z" id="Shape"></path>
                <path d="M0.0400390244,6.0222 L0.0400390244,0.79996 C0.0400390244,0.35824 0.433097561,0.00012 0.917912195,0.00012 C1.40272683,0.00012 1.79578537,0.35824 1.79578537,0.79996 L1.79578537,6.0222 C1.79578537,6.46392 1.40272683,6.82204 0.917912195,6.82204 C0.432965854,6.822 0.0400390244,6.46392 0.0400390244,6.0222 Z" id="Shape"></path>
            </g>
            <path d="M17.3844611,14.5816572 L16.1204762,13.2268229 C15.2997444,12.3471007 13.9643017,12.3471007 13.1435699,13.2268229 L12.5738149,13.8375292 C11.9899511,14.4633584 11.0400548,14.4633584 10.4562705,13.8375292 L8.74203765,12 L5,16.0109981 L7.85783639,19.0742426 C10.5202964,21.928068 14.3676132,21.0060445 15.1939487,20.1203158 L17.3843816,17.7724446 C18.2051929,16.8928077 18.2051929,15.4613794 17.3844611,14.5816572 Z" id="Shape" fill="#51B3DA"></path>
            <g id="Group" transform="translate(13.000000, 3.000000)" fill="#FFBE00">
                <path d="M4.95730612,0.0219899497 L0.0350204082,4.87011055 C0.353755102,5.184 0.870530612,5.184 1.18926531,4.87007035 L4.95734694,1.15879397 C5.276,0.844904523 5.27604082,0.335959799 4.95730612,0.0219899497 Z" id="Shape"></path>
                <path d="M0.998081633,7.15963819 C0.998081633,6.71569849 1.3635102,6.35577889 1.8142449,6.35577889 L7.14306122,6.35577889 C7.59379592,6.35573869 7.95922449,6.71565829 7.95922449,7.15963819 C7.95922449,7.60357789 7.59379592,7.96349749 7.14306122,7.96349749 L1.81428571,7.96349749 C1.36359184,7.96353769 0.998040816,7.60369849 0.998081633,7.15963819 Z" id="Shape"></path>
            </g>
        </g>
    </g>
</svg>