<?xml version="1.0" encoding="UTF-8"?>
<svg width="18px" height="16px" viewBox="0 0 18 16" version="1.1" xmlns="http://www.w3.org/2000/svg" xmlns:xlink="http://www.w3.org/1999/xlink">
    <!-- Generator: Sketch 50.2 (55047) - http://www.bohemiancoding.com/sketch -->
    <title>wechat</title>
    <desc>Created with Sketch.</desc>
    <defs></defs>
    <g id="Page-1" stroke="none" stroke-width="1" fill="none" fill-rule="evenodd">
        <g id="wechat" fill="#2DC100" fill-rule="nonzero">
            <path d="M16.2152332,16 C15.6726213,15.7595829 15.1748791,15.3988869 14.6449355,15.3438178 C14.1170443,15.2889599 13.562118,15.5919811 13.0098103,15.648177 C11.32748,15.8194407 9.82031126,15.3529021 8.57754818,14.2093366 C6.21396283,12.0340341 6.55168865,8.69861716 9.28626284,6.91598174 C11.7166573,5.33165167 15.2809669,5.85980864 16.9945079,8.0581388 C18.4898577,9.97640493 18.3141298,12.5228258 16.4886269,14.1343383 C15.9603818,14.6007361 15.7702872,14.9845302 16.1092162,15.5993753 C16.171779,15.7128939 16.178927,15.856623 16.2152332,16 Z M10.0386441,10.0495019 C10.3840841,10.049854 10.6685183,9.78084601 10.6816112,9.44134671 C10.6954118,9.08191828 10.4048912,8.78044628 10.0431735,8.77896744 C9.68506523,8.77734776 9.38506109,9.08304502 9.39751703,9.43712145 C9.40926524,9.7754236 9.69568109,10.0490793 10.0386441,10.0495019 Z M14.0203692,8.78037586 C13.6851912,8.77805197 13.4004031,9.05107391 13.3867441,9.38803806 C13.3722357,9.74838196 13.6536975,10.0442907 14.0120889,10.0452062 C14.358732,10.0463329 14.6326211,9.78549379 14.6452186,9.44226218 C14.6586654,9.08107323 14.377062,8.78284059 14.0203692,8.78037586 Z" id="Shape-Copy-2"></path>
            <path d="M12,5.4530814 C10.3966786,5.54634972 9.00247168,6.08752717 7.8705518,7.31019007 C6.72691144,8.54546077 6.20485362,10.0591356 6.34755207,11.9355615 C5.7208708,11.84915 5.15007699,11.7540385 4.57603853,11.7002156 C4.37778369,11.6816357 4.14251334,11.708031 3.97458607,11.8135385 C3.41716817,12.1637555 2.88279392,12.5591689 2.24942469,13 C2.36563619,12.4147321 2.44085913,11.9022356 2.57402228,11.4092775 C2.67195779,11.0469687 2.62659888,10.8453175 2.3268328,10.6093818 C0.402158459,9.09637057 -0.409136871,6.83205168 0.198010279,4.50085978 C0.759732307,2.34426027 2.13917275,1.03636561 4.01352189,0.35458525 C6.57183034,-0.575886058 9.44692273,0.373238914 11.0025676,2.6348298 C11.5644221,3.45175706 11.9089511,4.36866207 12,5.4530814 Z M4.62093391,4.72669445 C4.63570038,4.30031445 4.3038851,3.91618169 3.90975926,3.90335269 C3.50623055,3.89015503 3.17434904,4.23351517 3.16256235,4.6762632 C3.15064322,5.12498336 3.45888512,5.48456407 3.86532739,5.49606593 C4.26826015,5.50742034 4.606035,5.16361783 4.62093391,4.72669445 Z M8.47087856,3.90305777 C8.07529593,3.91116805 7.7410306,4.28630577 7.74804964,4.71438156 C7.75526734,5.15808808 8.0831758,5.50520844 8.48994916,5.49975243 C8.897782,5.49429642 9.20708338,5.14348956 9.20324277,4.69041934 C9.19986568,4.2456806 8.873414,3.89487375 8.47087856,3.90305777 Z" id="Shape-Copy"></path>
        </g>
    </g>
</svg>